<svg width="36" height="24" viewBox="0 0 36 24" fill="none" xmlns="http://www.w3.org/2000/svg">
<g clip-path="url(#clip0_31_5071)">
<rect x="0.371948" y="0.914551" width="34.7354" height="22.2307" rx="2.08412" fill="#499FE3"/>
<path d="M11.3669 13.4827V9.26722C11.3669 8.54758 10.7769 7.97119 10.0572 7.97119H4.46043C3.72715 7.97119 3.15076 8.54758 3.15076 9.26722V14.7924C3.15076 15.512 3.74079 16.0884 4.46043 16.0884H10.0436C10.7769 16.0884 11.3533 15.512 11.3533 14.7924V14.7344C11.3533 14.7344 9.208 13.8579 8.13024 13.3395C7.41061 14.216 6.4761 14.7481 5.49725 14.7481C4.89358 14.7481 4.38881 14.5332 4.08867 14.216C3.94543 14.0591 3.84311 13.8715 3.78513 13.6703C3.78513 13.6567 3.77149 13.626 3.77149 13.6123C3.77149 13.6123 3.75784 13.5851 3.75784 13.5407C3.68622 13.1519 3.80218 12.7495 4.08867 12.405C4.26261 12.2038 4.54911 12.0025 4.9959 11.9002C5.70189 11.7263 6.81034 12.0025 7.84375 12.347C8.03134 12.0025 8.18822 11.6274 8.30418 11.2249H5.10845V10.9077H6.76259V10.3313H4.76056V10.0141H6.75918V9.1956C6.75918 9.1956 6.75918 9.05235 6.90243 9.05235H7.70733V10.0176H9.69912V10.3347H7.71415V10.9111H9.32396C9.16707 11.5455 8.93515 12.1185 8.63501 12.6233C9.12273 12.7972 9.56952 12.9677 9.90035 13.07C11.0941 13.4554 11.3669 13.4827 11.3669 13.4827ZM5.14937 12.3743C4.94815 12.3879 4.55934 12.4902 4.34447 12.6608C3.7101 13.2065 4.08526 14.199 5.36765 14.199C6.11457 14.199 6.85127 13.7249 7.43789 12.9746C6.60229 12.5926 5.91335 12.3027 5.14937 12.3743Z" fill="white"/>
<path d="M16.1724 14.0286H17.2808L15.2106 9.50952H14.907C14.8627 9.50952 14.8047 9.52316 14.7638 9.55386C14.7229 9.58455 14.6922 9.62548 14.6615 9.66982L12.5605 14.0286H13.3075L13.6826 13.2953H15.8279L16.1724 14.0286ZM14.7774 10.9795L15.6847 12.9235H13.8259L14.7774 10.9795ZM18.7201 14.0286H17.714V9.71416C17.714 9.66982 17.7276 9.61184 17.772 9.57091C17.8163 9.52657 17.8572 9.51293 17.9152 9.51293H18.7337V14.032H18.7201V14.0286ZM19.5966 10.8942C19.5966 10.8499 19.6103 10.7919 19.6546 10.7646C19.6989 10.7203 19.7399 10.7066 19.7979 10.7066H20.6164V14.032H19.5932V10.8942H19.5966ZM21.4656 10.8942C21.4656 10.8499 21.4793 10.7919 21.5236 10.751C21.568 10.7066 21.6089 10.693 21.6669 10.693H22.4854V10.9522C22.6014 10.8499 22.731 10.7783 22.8879 10.7203C23.0311 10.6623 23.2187 10.635 23.4199 10.635C23.6348 10.635 23.8224 10.6794 24.01 10.7646C24.1839 10.8499 24.3408 10.9659 24.4567 11.1091C24.5863 11.2523 24.6716 11.4126 24.7432 11.6139C24.8149 11.8014 24.8456 12.0027 24.8456 12.2175C24.8456 12.4904 24.8012 12.736 24.7296 12.9645C24.6443 13.1964 24.5284 13.3976 24.3851 13.5681C24.2419 13.7421 24.0543 13.8717 23.8394 13.9706C23.6246 14.0729 23.3926 14.1138 23.1198 14.1138C22.9902 14.1138 22.8742 14.1138 22.7753 14.1002C22.673 14.0866 22.5877 14.0729 22.4888 14.0286V15.3655H21.4656V10.8942ZM22.4888 13.0941C22.4888 13.1793 22.5025 13.251 22.5332 13.326C22.5604 13.3976 22.6048 13.4556 22.6628 13.5136C22.7207 13.5716 22.7787 13.6159 22.864 13.6432C22.9356 13.6705 23.0209 13.6875 23.1232 13.6875C23.2085 13.6875 23.2971 13.6602 23.3688 13.6022C23.4404 13.5443 23.512 13.4726 23.57 13.3567C23.628 13.2544 23.6723 13.1248 23.7132 12.9815C23.7405 12.8383 23.7712 12.678 23.7712 12.5211C23.7712 12.3062 23.7576 12.1186 23.7269 11.9583C23.6996 11.8014 23.6553 11.6548 23.5973 11.5559C23.5393 11.4399 23.4813 11.3683 23.4097 11.3103C23.3381 11.2523 23.2528 11.2251 23.1641 11.2251C23.1061 11.2251 23.0345 11.2387 22.9765 11.2523C22.9186 11.2796 22.8606 11.3103 22.8026 11.3376C22.7446 11.3819 22.7003 11.4229 22.6457 11.4672C22.6014 11.5252 22.5434 11.5695 22.5025 11.6241V13.0907H22.4888V13.0941ZM27.4683 10.7339C26.9806 10.5907 26.3599 10.577 25.5243 10.7919C25.5516 10.8772 25.5822 11.0238 25.6095 11.1091C26.9465 10.8772 27.1921 11.0511 27.1921 11.6275V11.8014C26.9465 11.7878 26.66 11.7435 26.4281 11.7435C25.5209 11.7298 25.19 12.4495 25.19 12.9099C25.19 13.7012 25.954 14.4481 27.1886 13.9024V14.032H28.2255V11.6002C28.2425 11.1227 27.8401 10.8362 27.4683 10.7339ZM26.029 12.9235C26.029 12.5347 26.3462 12.2482 26.735 12.2175C26.9806 12.2039 27.1238 12.2448 27.2091 12.3028V13.4385C27.0795 13.5545 26.9226 13.6261 26.735 13.6261C26.3292 13.6261 26.029 13.3089 26.029 12.9235ZM28.5188 10.635H29.5965L30.6606 12.678L31.5372 10.7646C31.5508 10.7203 31.5815 10.693 31.6224 10.6623C31.6668 10.635 31.7077 10.635 31.752 10.635H32.3284L30.6436 14.3321C30.2411 15.3382 29.2486 15.195 29.0747 15.195V14.6323C29.2043 14.6323 29.6647 14.6323 29.866 14.4174C29.9103 14.373 29.9512 14.2741 29.9819 14.2162C30.0126 14.1582 30.0399 14.1002 30.0672 14.0422L30.1832 13.7694L28.5188 10.635Z" fill="white"/>
<path d="M20.6607 9.71408C20.6607 9.98692 20.4152 10.2018 20.115 10.2018C19.8115 10.2018 19.5693 9.98692 19.5693 9.71408C19.5693 9.44123 19.8149 9.22636 20.115 9.22636C20.4152 9.22295 20.6607 9.44123 20.6607 9.71408Z" fill="white"/>
</g>
<defs>
<clipPath id="clip0_31_5071">
<rect width="34.7354" height="22.2307" fill="white" transform="translate(0.371948 0.914551)"/>
</clipPath>
</defs>
</svg>
