<svg width="35" height="24" viewBox="0 0 35 24" fill="none" xmlns="http://www.w3.org/2000/svg">
<g clip-path="url(#clip0_31_5070)">
<rect x="0.0788574" y="0.914551" width="34.7354" height="22.2307" rx="2.08412" fill="#333333"/>
<path fill-rule="evenodd" clip-rule="evenodd" d="M20.6411 15.1867C19.0965 16.3101 16.8849 16.9069 14.9892 16.9069C12.3212 16.9069 9.899 15.9239 8.07354 14.274C7.93312 14.1336 8.07355 13.9581 8.21397 14.0634C10.1798 15.2218 12.6372 15.8888 15.1296 15.8888C16.8147 15.8888 18.7103 15.5378 20.4305 14.8006C20.6762 14.7304 20.8869 15.0112 20.6411 15.1867Z" fill="#FF9201"/>
<path fill-rule="evenodd" clip-rule="evenodd" d="M21.273 14.4495C21.0624 14.2038 19.9741 14.3442 19.4826 14.3793C19.3422 14.4144 19.3071 14.274 19.4475 14.1687C20.3252 13.5368 21.7645 13.7475 21.94 13.923C22.1155 14.1336 21.9049 15.5729 21.0624 16.275C20.9219 16.3803 20.8166 16.3101 20.8868 16.1697C21.0273 15.7484 21.4485 14.7304 21.273 14.4495Z" fill="#FF9201"/>
<path fill-rule="evenodd" clip-rule="evenodd" d="M19.5178 9.85098V9.25419C19.5178 9.14888 19.588 9.11377 19.6582 9.11377H22.3262C22.3964 9.11377 22.4666 9.18398 22.4666 9.25419V9.78077C22.4666 9.85098 22.3964 9.99139 22.256 10.1669L20.8518 12.1679C21.3783 12.1679 21.9049 12.2381 22.3964 12.4838C22.5017 12.5541 22.5368 12.6243 22.5368 12.7296V13.3615C22.5368 13.4317 22.4315 13.537 22.3262 13.5019C21.4836 13.0806 20.3954 13.0104 19.4827 13.5019C19.3773 13.537 19.3071 13.4668 19.3071 13.3615V12.7296C19.3071 12.6243 19.3071 12.4838 19.4125 12.3083L21.0273 9.99139H19.6231C19.588 9.99139 19.5178 9.92119 19.5178 9.85098Z" fill="white"/>
<path fill-rule="evenodd" clip-rule="evenodd" d="M9.72347 13.572H8.91606C8.84585 13.572 8.77563 13.5018 8.77563 13.4316V9.25409C8.77563 9.18388 8.84585 9.11367 8.91606 9.11367H9.68838C9.75859 9.11367 9.82878 9.18388 9.82878 9.25409V9.81576C10.0394 9.28919 10.3905 9.04346 10.917 9.04346C11.4436 9.04346 11.7596 9.28919 11.9702 9.81576C12.1808 9.28919 12.6021 9.04346 13.0936 9.04346C13.4446 9.04346 13.7956 9.18388 14.0414 9.49982C14.2871 9.85087 14.252 10.3774 14.252 10.7987V13.4316C14.252 13.5018 14.1818 13.572 14.1116 13.572H13.3042C13.234 13.572 13.1638 13.5018 13.1638 13.4316V11.22C13.1638 11.0444 13.1638 10.5881 13.1287 10.4477C13.0584 10.1668 12.8829 10.0966 12.6372 10.0966C12.4265 10.0966 12.2159 10.237 12.1457 10.4477C12.0755 10.6583 12.0755 11.0093 12.0755 11.2551V13.4667C12.0755 13.5369 12.0053 13.6071 11.9351 13.6071H11.1277C11.0575 13.6071 10.9873 13.5369 10.9873 13.4667V11.2551C10.9873 10.7987 11.0575 10.0966 10.4958 10.0966C9.899 10.0966 9.93411 10.7636 9.93411 11.2551V13.4667C9.8639 13.5018 9.79368 13.572 9.72347 13.572Z" fill="white"/>
<path fill-rule="evenodd" clip-rule="evenodd" d="M24.8186 9.00806C26.0473 9.00806 26.6792 10.0612 26.6792 11.3601C26.6792 12.6239 25.942 13.6419 24.8186 13.6419C23.625 13.6419 22.9931 12.5888 22.9931 11.2899C22.958 10.0261 23.625 9.00806 24.8186 9.00806ZM24.8186 9.88568C24.2218 9.88568 24.1867 10.6931 24.1867 11.2197C24.1867 11.7462 24.1867 12.8345 24.8186 12.8345C25.4505 12.8345 25.4856 11.9569 25.4856 11.4303C25.4856 11.0793 25.4856 10.658 25.3803 10.3069C25.275 9.991 25.0643 9.88568 24.8186 9.88568Z" fill="white"/>
<path fill-rule="evenodd" clip-rule="evenodd" d="M28.2589 13.5717H27.4514C27.3812 13.5717 27.311 13.5015 27.311 13.4313V9.2538C27.311 9.18359 27.3812 9.11337 27.4514 9.11337H28.2238C28.294 9.11337 28.3642 9.14848 28.3642 9.21869V9.85058C28.6099 9.2889 28.9258 9.00806 29.4875 9.00806C29.8386 9.00806 30.2247 9.14848 30.4354 9.49953C30.646 9.85058 30.646 10.4123 30.646 10.7984V13.4313C30.646 13.5015 30.5758 13.5717 30.5056 13.5717H29.6982C29.628 13.5717 29.5577 13.5015 29.5577 13.4313V11.1495C29.5577 10.6931 29.6279 10.0261 29.0312 10.0261C28.8205 10.0261 28.645 10.1665 28.5748 10.3772C28.4695 10.6229 28.4344 10.9037 28.4344 11.1846V13.4313C28.3993 13.5015 28.3291 13.5717 28.2589 13.5717Z" fill="white"/>
<path fill-rule="evenodd" clip-rule="evenodd" d="M17.3764 11.5709C17.3764 11.8869 17.3764 12.1677 17.236 12.4485C17.0956 12.6943 16.8849 12.8347 16.6743 12.8347C16.3583 12.8347 16.1828 12.589 16.1828 12.2379C16.1828 11.5358 16.8147 11.4305 17.4115 11.4305V11.5709H17.3764ZM18.1838 13.5719C18.1136 13.607 18.0434 13.607 18.0083 13.607C17.7275 13.3964 17.6923 13.291 17.5519 13.0453C17.0955 13.5017 16.7796 13.6421 16.2179 13.6421C15.5158 13.6421 14.9893 13.2208 14.9893 12.3783C14.9893 11.7113 15.3403 11.255 15.8669 11.0443C16.3232 10.8337 16.92 10.7986 17.4115 10.7635V10.6582C17.4115 10.4476 17.4115 10.2369 17.3062 10.0614C17.2009 9.92097 17.0253 9.85077 16.8498 9.85077C16.5339 9.85077 16.253 10.0263 16.1828 10.3422C16.1828 10.4124 16.1126 10.4827 16.0424 10.4827L15.235 10.4124C15.1648 10.4124 15.0946 10.3422 15.1297 10.2369C15.3052 9.28909 16.1828 8.97314 16.9551 8.97314C17.3413 8.97314 17.8679 9.07846 18.1838 9.3944C18.57 9.78056 18.5349 10.272 18.5349 10.7986V12.0624C18.5349 12.4485 18.7104 12.6241 18.8508 12.8347C18.8859 12.9049 18.921 13.0102 18.8508 13.0453C18.6402 13.1857 18.3593 13.4315 18.1838 13.5719Z" fill="white"/>
<path fill-rule="evenodd" clip-rule="evenodd" d="M6.6693 11.5709C6.6693 11.8869 6.66931 12.1677 6.52889 12.4485C6.38847 12.6943 6.17783 12.8347 5.9672 12.8347C5.65125 12.8347 5.47574 12.589 5.47574 12.2379C5.47574 11.5358 6.10763 11.4305 6.70442 11.4305V11.5709H6.6693ZM7.47673 13.5719C7.40652 13.607 7.3363 13.607 7.26609 13.607C6.98525 13.3964 6.95015 13.291 6.80973 13.0453C6.35336 13.5017 6.03742 13.6421 5.47574 13.6421C4.77364 13.6421 4.24707 13.2208 4.24707 12.3783C4.24707 11.7113 4.59812 11.255 5.12469 11.0443C5.58106 10.8337 6.17783 10.7986 6.6693 10.7635V10.6582C6.6693 10.4476 6.6693 10.2369 6.56399 10.0614C6.45867 9.92097 6.28315 9.85077 6.10763 9.85077C5.79168 9.85077 5.51084 10.0263 5.44063 10.3422C5.44063 10.4124 5.37043 10.4827 5.30022 10.4827L4.4928 10.4124C4.42259 10.4124 4.35238 10.3422 4.38749 10.2369C4.56301 9.28909 5.44063 8.97314 6.21294 8.97314C6.59909 8.97314 7.12567 9.07846 7.44161 9.3944C7.82776 9.78056 7.79266 10.272 7.79266 10.7986V12.0624C7.79266 12.4485 7.96819 12.6241 8.10861 12.8347C8.14372 12.9049 8.17882 13.0102 8.10861 13.0453C7.93309 13.1857 7.65225 13.4315 7.47673 13.5719Z" fill="white"/>
</g>
<defs>
<clipPath id="clip0_31_5070">
<rect width="34.7354" height="22.2307" fill="white" transform="translate(0.0788574 0.914551)"/>
</clipPath>
</defs>
</svg>
