<svg width="36" height="24" viewBox="0 0 36 24" fill="none" xmlns="http://www.w3.org/2000/svg">
<g clip-path="url(#clip0_31_5069)">
<rect x="0.785767" y="0.914551" width="34.7354" height="22.2307" rx="2.08412" fill="#306FC8"/>
<mask id="mask0_31_5069" style="mask-type:alpha" maskUnits="userSpaceOnUse" x="0" y="0" width="36" height="23">
<rect x="0.785767" y="0.683838" width="34.7354" height="22.2307" rx="2.08412" fill="url(#paint0_linear_31_5069)"/>
</mask>
<g mask="url(#mask0_31_5069)">
<path d="M15.8189 16.964V13.7278L14.3228 15.3216L15.8189 16.964Z" fill="white"/>
<path d="M9.54846 14.1338V14.8623L11.6878 14.8579V15.6923H9.54846V16.4914H11.9468L13.0634 15.3082L11.9915 14.1338H9.54846Z" fill="white"/>
<path d="M18.6373 8.00135C18.7623 7.93071 18.8383 7.78943 18.8383 7.61725C18.8383 7.44506 18.7579 7.32144 18.6373 7.25521C18.5212 7.18899 18.347 7.18457 18.1728 7.18457H16.9669V8.08524H18.1594C18.347 8.08524 18.5033 8.07641 18.6373 8.00135Z" fill="white"/>
<path d="M2.58118 8.63711H3.91657L3.24664 7.03003L2.58118 8.63711Z" fill="white"/>
<path d="M18.07 14.1338H16.7971V15.1493H18.0611C18.4317 15.1493 18.664 14.9726 18.664 14.6239C18.6595 14.2751 18.4184 14.1338 18.07 14.1338Z" fill="white"/>
<path d="M2.83129 10.2752H3.67093L4.05056 11.1802H7.33322V10.4915L7.62799 11.1802H9.32514L9.61991 10.4827V11.1802H17.7752V9.70561H17.936C18.0521 9.70561 18.0834 9.71885 18.0834 9.89987V11.1802H22.2995V10.8314C22.6344 11.0125 23.1614 11.1802 23.8671 11.1802H25.6402L26.0243 10.2752H26.8639L27.2435 11.1802H30.6513V10.3237L31.1738 11.1802H33.9116V5.54663H31.2051V6.20889L30.8165 5.54663H28.0341V6.20889L27.6946 5.54663H23.9341C23.2999 5.54663 22.7416 5.63052 22.2995 5.86893V5.54663H19.7091V5.86893C19.4054 5.6261 19.0257 5.54663 18.597 5.54663H9.11523L8.4721 6.99918L7.82897 5.54663H4.84554V6.20889L4.50611 5.54663H1.96038L0.785767 8.21774V11.1802H2.45166L2.83129 10.2752ZM22.4826 6.81375C22.7952 6.49145 23.2954 6.34134 23.9698 6.34134H24.9033V7.20669H23.9877C23.6259 7.20669 23.4249 7.25967 23.2329 7.44952C23.0632 7.61729 22.9471 7.93959 22.9471 8.36343C22.9471 8.79611 23.0319 9.10075 23.224 9.31267C23.3669 9.47161 23.6393 9.52018 23.9028 9.52018H24.3405L25.7161 6.34134H27.1721L28.829 10.1648V6.34134H30.3208L32.0358 9.15373V6.34134H33.0407V10.3855H31.6472L29.8027 7.3568V10.3855H27.8152L27.4401 9.48044H25.4079L25.0328 10.3855H23.8984C23.4205 10.3855 22.8175 10.2752 22.4781 9.93519C22.1342 9.59082 21.96 9.12724 21.96 8.39434C21.96 7.79389 22.0672 7.24643 22.4826 6.81375ZM20.4817 6.34134H21.4821V10.3855H20.4817V6.34134ZM15.9932 6.34134H18.2441C18.7399 6.34134 19.1061 6.359 19.4188 6.5356C19.7314 6.71662 19.9234 6.98152 19.9234 7.43186C19.9234 8.07204 19.4857 8.40317 19.2267 8.50472C19.4411 8.58419 19.6242 8.72988 19.7091 8.84909C19.8475 9.04335 19.8698 9.22878 19.8698 9.58199V10.3855H18.8873V9.87338C18.8873 9.63497 18.9096 9.28176 18.7265 9.09192C18.588 8.94622 18.3737 8.91532 18.0164 8.91532H16.9668V10.3855H15.9887V6.34134H15.9932ZM12.054 6.34134H15.3143V7.18461H13.0276V7.9131H15.2563V8.74313H13.0276V9.54225L15.3143 9.53784V10.3811H12.054V6.34134ZM1.85765 10.3855H0.794699L2.54098 6.34134H3.99697L5.65393 10.1648V6.34134H7.25283L8.52569 9.08309L9.7003 6.34134H11.326V10.3855H10.3256V7.21994L8.90979 10.3855H8.05228L6.63202 7.21552V10.3855H4.6401L4.26494 9.48044H2.23282L1.85765 10.3855Z" fill="white"/>
<path d="M26.4217 7.03003L25.7562 8.63711H27.0872L26.4217 7.03003Z" fill="white"/>
<path d="M33.3578 14.2264C33.2551 14.2926 33.2104 14.3898 33.2104 14.5178C33.2104 14.6679 33.2998 14.7739 33.4248 14.818C33.5231 14.8533 33.6347 14.8622 33.8 14.8622L34.3225 14.8754C34.8629 14.8887 35.2202 14.977 35.4391 15.2021C35.4703 15.233 35.4971 15.2639 35.5195 15.2948V14.1558H33.7464C33.5722 14.1558 33.4516 14.1646 33.3578 14.2264Z" fill="white"/>
<path d="M34.202 17.3303H32.3172V16.465H34.193C34.3762 16.465 34.5057 16.4385 34.5861 16.3679C34.6531 16.306 34.7022 16.2177 34.7022 16.1029C34.7022 15.9837 34.6531 15.891 34.5816 15.8336C34.5101 15.7718 34.4074 15.7453 34.2422 15.7453C33.3311 15.7188 32.1832 15.7762 32.1832 14.4915C32.1832 13.9131 32.5539 13.2906 33.5812 13.2906H35.524V12.4958H33.7152C33.1747 12.4958 32.7683 12.6195 32.4914 12.8181V12.4958H29.8251C29.4008 12.4958 28.8917 12.5974 28.655 12.8181V12.4958H23.8806V12.8181C23.501 12.5532 22.8623 12.4958 22.5586 12.4958H19.4099V12.8181C19.1107 12.5312 18.4497 12.4958 18.0433 12.4958H14.515L13.7066 13.3612L12.9563 12.4958H7.69507V18.1295H12.8625L13.6887 17.2509L14.4748 18.125L17.6547 18.1295V16.8005H17.9718C18.3916 16.8005 18.8918 16.7917 19.3251 16.6063V18.1295H21.9601V16.6548H22.0896C22.2504 16.6548 22.2638 16.6681 22.2638 16.8182V18.1295H30.236C30.7362 18.1295 31.2766 18.0014 31.5714 17.7718V18.1295H34.0993C34.6218 18.1295 35.1399 18.0544 35.5329 17.869V16.8226C35.2783 17.167 34.8317 17.3303 34.202 17.3303ZM18.0075 15.9793H16.7927V17.3303H14.8901L13.6932 16.0014L12.4426 17.3347H8.57044V13.2906H12.5007L13.6976 14.6195L14.9437 13.2906H18.0701C18.8382 13.2906 19.7092 13.5113 19.7092 14.6283C19.7047 15.7453 18.8606 15.9793 18.0075 15.9793ZM23.885 15.7983C24.0235 15.9926 24.0458 16.178 24.0503 16.5312V17.3303H23.0677V16.8182C23.0677 16.5798 23.0901 16.2266 22.9069 16.0367C22.764 15.891 22.5541 15.8601 22.1968 15.8601H21.1473V17.3303H20.1692V13.2861H22.4201C22.9159 13.2861 23.2776 13.3038 23.5947 13.4848C23.9074 13.6658 24.0994 13.9307 24.0994 14.3811C24.0994 15.0213 23.6617 15.3524 23.4072 15.4539C23.6215 15.5334 23.8047 15.6791 23.885 15.7983ZM27.9002 14.1338H25.6179V14.8623H27.851V15.6968H25.6179V16.4959H27.9046V17.3347H24.6443V13.2906H27.9046V14.1338H27.9002ZM30.3834 17.3303H28.4808V16.465H30.3744C30.5576 16.465 30.6871 16.4385 30.7675 16.3679C30.8345 16.306 30.8836 16.2177 30.8836 16.1029C30.8836 15.9837 30.8345 15.891 30.763 15.8336C30.6915 15.7718 30.5888 15.7453 30.4236 15.7453C29.5125 15.7188 28.3646 15.7762 28.3646 14.4915C28.3646 13.9087 28.7353 13.2906 29.7626 13.2906H31.7188V14.1559H29.9278C29.7492 14.1559 29.633 14.1603 29.5348 14.2221C29.4321 14.2884 29.3919 14.3855 29.3919 14.5135C29.3919 14.6636 29.4812 14.7696 29.6063 14.8138C29.709 14.8491 29.8162 14.8579 29.9814 14.8579L30.504 14.8711C31.0444 14.8844 31.4017 14.9727 31.6205 15.1979C31.8126 15.401 31.9153 15.635 31.9153 16.0544C31.9197 16.9197 31.3749 17.3303 30.3834 17.3303Z" fill="white"/>
<path d="M22.8176 14.2C22.7015 14.1382 22.5228 14.1338 22.3531 14.1338H21.1472V15.0345H22.3397C22.5273 15.0345 22.6881 15.03 22.8176 14.955C22.9426 14.8843 23.0186 14.7431 23.0186 14.5709C23.0141 14.3943 22.9382 14.2707 22.8176 14.2Z" fill="white"/>
</g>
</g>
<defs>
<linearGradient id="paint0_linear_31_5069" x1="18.1535" y1="0.683838" x2="18.1535" y2="22.9145" gradientUnits="userSpaceOnUse">
<stop stop-color="#1B8ABA"/>
<stop offset="1" stop-color="#005D9C"/>
</linearGradient>
<clipPath id="clip0_31_5069">
<rect width="34.7354" height="22.2307" fill="white" transform="translate(0.785767 0.914551)"/>
</clipPath>
</defs>
</svg>
