<svg width="23" height="23" viewBox="0 0 23 23" fill="none" xmlns="http://www.w3.org/2000/svg">
<g clip-path="url(#clip0_31_5017)">
<path d="M3.3138 7.677C2.93076 7.677 2.60577 7.81057 2.33863 8.07772C2.07148 8.34487 1.93787 8.66544 1.93787 9.03959V14.7842C1.93787 15.1678 2.07144 15.4925 2.33863 15.7596C2.60577 16.0268 2.93076 16.1604 3.3138 16.1604C3.69655 16.1604 4.01957 16.0268 4.28258 15.7596C4.54506 15.4925 4.67666 15.1678 4.67666 14.7842V9.03959C4.67666 8.6654 4.54309 8.34487 4.2759 8.07772C4.00872 7.81057 3.68795 7.677 3.3138 7.677Z" fill="#1F2937"/>
<path d="M14.3756 2.51994L15.3241 0.770103C15.3864 0.654257 15.3643 0.565422 15.2575 0.502957C15.1416 0.449093 15.0526 0.476387 14.9904 0.582908L14.0285 2.34674C13.1822 1.97254 12.287 1.78511 11.3431 1.78511C10.399 1.78511 9.50375 1.97258 8.65774 2.34674L7.69587 0.582908C7.63336 0.476387 7.54433 0.449335 7.42872 0.502957C7.32172 0.565704 7.29957 0.654257 7.36208 0.770103L8.31068 2.51994C7.34881 3.01046 6.58274 3.6936 6.01276 4.57085C5.44277 5.44859 5.15765 6.40776 5.15765 7.45006H17.5151C17.5151 6.408 17.23 5.44879 16.66 4.57085C16.09 3.6936 15.3284 3.01046 14.3756 2.51994ZM8.89144 5.06511C8.78886 5.16793 8.66634 5.2191 8.52392 5.2191C8.38122 5.2191 8.2612 5.16793 8.16328 5.06511C8.06536 4.96277 8.0164 4.84073 8.0164 4.69783C8.0164 4.55542 8.06536 4.43314 8.16328 4.33056C8.2612 4.22822 8.3815 4.17705 8.52392 4.17705C8.66634 4.17705 8.78886 4.22822 8.89144 4.33056C8.99378 4.43338 9.04519 4.55542 9.04519 4.69783C9.04491 4.84049 8.99354 4.96277 8.89144 5.06511ZM14.5224 5.06511C14.4243 5.16793 14.304 5.2191 14.1618 5.2191C14.0191 5.2191 13.8966 5.16793 13.7942 5.06511C13.6917 4.96277 13.6405 4.84073 13.6405 4.69783C13.6405 4.55542 13.6917 4.43314 13.7942 4.33056C13.8966 4.22822 14.0191 4.17705 14.1618 4.17705C14.3042 4.17705 14.4243 4.22822 14.5224 4.33056C14.6204 4.43338 14.6693 4.55542 14.6693 4.69783C14.6693 4.84049 14.6204 4.96277 14.5224 5.06511Z" fill="#1F2937"/>
<path d="M5.21124 16.8284C5.21124 17.2384 5.35366 17.5856 5.63853 17.8705C5.92365 18.1553 6.27078 18.2977 6.68059 18.2977H7.66927L7.68281 21.3307C7.68281 21.7137 7.81639 22.039 8.08353 22.3062C8.35068 22.5733 8.67149 22.7069 9.0454 22.7069C9.42819 22.7069 9.75338 22.5733 10.0206 22.3062C10.2878 22.039 10.4213 21.7138 10.4213 21.3307V18.298H12.2649V21.3307C12.2649 21.7137 12.3984 22.039 12.6656 22.3062C12.9328 22.5733 13.2577 22.7069 13.6408 22.7069C14.0236 22.7069 14.3488 22.5733 14.616 22.3062C14.8832 22.039 15.0167 21.7138 15.0167 21.3307V18.298H16.0187C16.4194 18.298 16.7621 18.1556 17.0475 17.8707C17.3323 17.5858 17.4748 17.2387 17.4748 16.8286V7.93066H5.21124V16.8284Z" fill="#1F2937"/>
<path d="M19.3724 7.677C18.9982 7.677 18.6777 7.80861 18.4105 8.07109C18.1433 8.33406 18.0098 8.65707 18.0098 9.03959V14.7842C18.0098 15.1678 18.1433 15.4925 18.4105 15.7596C18.6777 16.0268 18.9984 16.1604 19.3724 16.1604C19.7552 16.1604 20.0804 16.0268 20.3476 15.7596C20.6147 15.4925 20.7483 15.1678 20.7483 14.7842V9.03959C20.7483 8.65703 20.6147 8.33406 20.3476 8.07109C20.0804 7.80861 19.7552 7.677 19.3724 7.677Z" fill="#1F2937"/>
</g>
<defs>
<clipPath id="clip0_31_5017">
<rect width="22.2307" height="22.2307" fill="white" transform="translate(0.226746 0.475098)"/>
</clipPath>
</defs>
</svg>
