<svg width="36" height="24" viewBox="0 0 36 24" fill="none" xmlns="http://www.w3.org/2000/svg">
<g clip-path="url(#clip0_31_5068)">
<rect x="0.492676" y="0.914551" width="34.7354" height="22.2307" rx="2.08412" fill="black"/>
<path d="M9.48447 7.99583C9.17507 8.36304 8.68003 8.65266 8.185 8.61129C8.12312 8.11478 8.36548 7.58725 8.64909 7.26142C8.95849 6.88387 9.49994 6.61493 9.93825 6.59424C9.98982 7.11143 9.78871 7.61828 9.48447 7.99583ZM9.9331 8.70956C9.21632 8.66818 8.60269 9.11814 8.26235 9.11814C7.91685 9.11814 7.39603 8.73024 6.8288 8.74059C6.09141 8.75093 5.40558 9.16986 5.02914 9.83704C4.25565 11.1714 4.82803 13.1471 5.57574 14.2332C5.94186 14.7711 6.38018 15.3607 6.95772 15.34C7.50432 15.3193 7.7209 14.9831 8.38095 14.9831C9.04615 14.9831 9.23695 15.34 9.81449 15.3296C10.4127 15.3193 10.7891 14.7917 11.1552 14.2539C11.5729 13.6436 11.7431 13.0488 11.7534 13.0178C11.7431 13.0074 10.5983 12.5678 10.588 11.2438C10.5777 10.137 11.4904 9.60947 11.5317 9.57844C11.016 8.81299 10.2116 8.73024 9.9331 8.70956ZM14.0739 7.2097V15.2727H15.3218V12.5161H17.0492C18.6272 12.5161 19.7358 11.43 19.7358 9.85772C19.7358 8.28546 18.6478 7.2097 17.0905 7.2097H14.0739V7.2097ZM15.3218 8.26477H16.7605C17.8434 8.26477 18.4622 8.84403 18.4622 9.8629C18.4622 10.8818 17.8434 11.4662 16.7553 11.4662H15.3218V8.26477V8.26477ZM22.0151 15.3348C22.7989 15.3348 23.526 14.9366 23.856 14.3056H23.8818V15.2727H25.0369V11.2593C25.0369 10.0956 24.1087 9.3457 22.6803 9.3457C21.355 9.3457 20.3753 10.106 20.3392 11.1507H21.4633C21.5561 10.6542 22.0151 10.3284 22.6442 10.3284C23.4074 10.3284 23.8354 10.6852 23.8354 11.3421V11.7869L22.2781 11.8799C20.8291 11.9679 20.0452 12.5626 20.0452 13.597C20.0452 14.6418 20.8548 15.3348 22.0151 15.3348ZM22.3503 14.378C21.6851 14.378 21.2622 14.0573 21.2622 13.566C21.2622 13.0591 21.6696 12.7643 22.4482 12.7178L23.8354 12.6299V13.085C23.8354 13.8401 23.1959 14.378 22.3503 14.378ZM26.5787 17.4656C27.7957 17.4656 28.368 17.0002 28.8682 15.5882L31.0598 9.42328H29.7913L28.3216 14.1866H28.2959L26.8262 9.42328H25.5216L27.6358 15.2934L27.5224 15.6503C27.3316 16.2554 27.0222 16.4881 26.4704 16.4881C26.3724 16.4881 26.1816 16.4778 26.1043 16.4674V17.4346C26.1765 17.4553 26.4859 17.4656 26.5787 17.4656Z" fill="white"/>
</g>
<defs>
<clipPath id="clip0_31_5068">
<rect width="34.7354" height="22.2307" fill="white" transform="translate(0.492676 0.914551)"/>
</clipPath>
</defs>
</svg>
