<svg width="23" height="23" viewBox="0 0 23 23" fill="none" xmlns="http://www.w3.org/2000/svg">
<g clip-path="url(#clip0_31_5024)">
<path d="M17.7791 12.9367C17.1676 9.85913 20.0887 8.05417 20.0887 8.05417C20.0887 8.05417 18.9506 6.40758 17.0378 5.98398C15.126 5.55945 14.1692 6.08986 13.2142 6.48767C12.2583 6.88646 11.7813 6.88646 11.7813 6.88646C10.4019 6.88646 9.39345 5.42589 6.76522 6.09083C4.95455 6.54778 3.04844 8.638 2.70405 11.1327C2.35966 13.6284 3.10284 16.8128 4.53572 19.2808C5.96861 21.7507 7.42826 22.6789 8.46426 22.7056C9.5003 22.7314 10.5344 21.9634 11.7813 21.7764C13.0292 21.5914 13.7971 22.2287 15.0211 22.573C16.2403 22.9165 16.6677 22.5979 18.0719 21.4034C19.48 20.209 20.7546 16.7832 20.7546 16.7832C20.7546 16.7832 18.3906 16.0162 17.7791 12.9367Z" fill="#1F2937"/>
<path d="M15.0717 3.99344C16.4264 2.61305 15.9675 0.476074 15.9675 0.476074C15.9675 0.476074 14.0653 0.809983 12.7907 2.13602C11.5171 3.46303 11.7279 5.55896 11.7279 5.55896C11.7279 5.55896 13.717 5.37294 15.0717 3.99344Z" fill="#1F2937"/>
</g>
<defs>
<clipPath id="clip0_31_5024">
<rect width="22.2307" height="22.2307" fill="white" transform="translate(0.572754 0.475098)"/>
</clipPath>
</defs>
</svg>
