<svg width="36" height="24" viewBox="0 0 36 24" fill="none" xmlns="http://www.w3.org/2000/svg">
<g clip-path="url(#clip0_31_5073)">
<rect x="0.958069" y="0.914551" width="34.7354" height="22.2307" rx="2.08412" fill="#F7931A"/>
<path d="M10.914 16.3363C11.1225 16.3363 11.3027 16.3737 11.4541 16.447C11.6062 16.5211 11.7317 16.6209 11.8324 16.7464C11.9317 16.8726 12.0056 17.0201 12.0534 17.189C12.1008 17.3585 12.1245 17.5407 12.1245 17.7357C12.1245 18.0353 12.0697 18.3183 11.9589 18.5851C11.848 18.8523 11.6977 19.084 11.5064 19.2817C11.3154 19.4791 11.0897 19.6348 10.8295 19.7498C10.5697 19.8648 10.2873 19.9224 9.98401 19.9224C9.9448 19.9224 9.87585 19.9212 9.77846 19.9192C9.68107 19.9172 9.56913 19.9072 9.44378 19.8902C9.31762 19.8726 9.18423 19.8466 9.04336 19.8117C8.90258 19.7775 8.76886 19.7295 8.64294 19.6686L9.7689 14.9375L10.7774 14.7812L10.3742 16.4601C10.4605 16.4212 10.5475 16.3911 10.6343 16.3692C10.7211 16.3476 10.8143 16.3363 10.914 16.3363V16.3363ZM10.0681 19.1223C10.2199 19.1223 10.3631 19.085 10.4975 19.0116C10.6323 18.9382 10.7487 18.839 10.8462 18.7155C10.9436 18.5914 11.0208 18.4517 11.077 18.2956C11.1333 18.1394 11.1617 17.9765 11.1617 17.8071C11.1617 17.5989 11.1269 17.4365 11.0576 17.3191C10.9882 17.2021 10.8599 17.1433 10.6736 17.1433C10.6125 17.1433 10.5338 17.155 10.4363 17.1758C10.3384 17.1979 10.2508 17.2438 10.1723 17.3128L9.74302 19.0957C9.7689 19.1003 9.7918 19.1047 9.81133 19.1088C9.83045 19.1132 9.85158 19.1163 9.87264 19.1185C9.8949 19.121 9.92037 19.1223 9.95115 19.1223C9.98192 19.1223 10.0204 19.1223 10.0681 19.1223V19.1223Z" fill="white"/>
<path d="M13.1703 19.8322H12.207L13.0205 16.4093H13.9903L13.1703 19.8322ZM13.639 15.9922C13.5045 15.9922 13.3826 15.9522 13.2745 15.872C13.1654 15.7923 13.1114 15.6696 13.1114 15.5042C13.1114 15.4133 13.1299 15.3279 13.1666 15.2474C13.2038 15.1671 13.2524 15.0979 13.3133 15.0391C13.3741 14.9807 13.4446 14.9341 13.5246 14.899C13.6052 14.8644 13.6908 14.8472 13.7821 14.8472C13.9165 14.8472 14.0377 14.8872 14.1463 14.9674C14.2544 15.048 14.3088 15.1707 14.3088 15.3352C14.3088 15.4265 14.2904 15.5121 14.2535 15.5925C14.2167 15.6728 14.1681 15.742 14.1072 15.8008C14.0469 15.8593 13.9758 15.9057 13.8959 15.9405C13.8153 15.9756 13.7299 15.9922 13.639 15.9922Z" fill="white"/>
<path d="M14.8345 15.5562L15.8434 15.3999L15.5956 16.4089H16.6761L16.481 17.2026H15.407L15.121 18.3999C15.0946 18.4997 15.0797 18.5929 15.0755 18.6796C15.0708 18.7666 15.0818 18.8413 15.1078 18.9042C15.1337 18.9673 15.1802 19.0159 15.2477 19.0503C15.3149 19.0853 15.4111 19.1029 15.5372 19.1029C15.6411 19.1029 15.7424 19.093 15.8402 19.0734C15.9376 19.0541 16.0362 19.0273 16.136 18.9922L16.2078 19.7343C16.0776 19.7821 15.9367 19.8231 15.7848 19.8577C15.6327 19.8927 15.4526 19.9096 15.2445 19.9096C14.9452 19.9096 14.7132 19.8651 14.548 19.7767C14.3829 19.6876 14.2662 19.5658 14.1964 19.4117C14.1275 19.2581 14.0968 19.0811 14.1054 18.8817C14.1143 18.6817 14.1444 18.4716 14.1964 18.2503L14.8345 15.5562V15.5562Z" fill="white"/>
<path d="M16.6338 18.4649C16.6338 18.1701 16.6815 17.892 16.7769 17.6318C16.8721 17.3713 17.0093 17.1434 17.1873 16.9479C17.3646 16.7534 17.5807 16.5993 17.835 16.4861C18.0882 16.3736 18.3716 16.3169 18.6839 16.3169C18.8794 16.3169 19.054 16.3354 19.2077 16.3724C19.362 16.4098 19.5015 16.4581 19.6278 16.5187L19.2956 17.274C19.2088 17.2388 19.1187 17.2078 19.0256 17.1797C18.9324 17.151 18.8186 17.1372 18.684 17.1372C18.3625 17.1372 18.1083 17.248 17.9192 17.4689C17.7307 17.6899 17.6358 17.9875 17.6358 18.3608C17.6358 18.582 17.6836 18.7609 17.7794 18.8977C17.8747 19.0345 18.0507 19.1026 18.3063 19.1026C18.4325 19.1026 18.5542 19.0894 18.6708 19.0637C18.7883 19.0377 18.892 19.0049 18.9834 18.9662L19.0553 19.7405C18.9335 19.7877 18.7992 19.8304 18.6518 19.8678C18.5041 19.9038 18.3283 19.9226 18.1244 19.9226C17.8553 19.9226 17.6275 19.8832 17.4411 19.8057C17.2547 19.7269 17.1007 19.6224 16.9793 19.4899C16.8573 19.3572 16.7698 19.2022 16.7156 19.0243C16.6614 18.8465 16.6338 18.6598 16.6338 18.4649V18.4649Z" fill="white"/>
<path d="M20.9126 19.9226C20.6827 19.9226 20.483 19.8875 20.3137 19.8182C20.1447 19.7488 20.0048 19.6515 19.8942 19.5254C19.7834 19.3999 19.7005 19.2511 19.6436 19.0797C19.5868 18.9084 19.5595 18.7187 19.5595 18.5108C19.5595 18.25 19.6014 17.9894 19.686 17.7294C19.7702 17.4689 19.8952 17.2348 20.0605 17.0268C20.2246 16.8184 20.427 16.648 20.6654 16.5152C20.9035 16.3833 21.1773 16.3169 21.4849 16.3169C21.7107 16.3169 21.9093 16.352 22.081 16.4214C22.2519 16.4905 22.3927 16.5887 22.504 16.7142C22.6141 16.8403 22.6977 16.9884 22.754 17.1601C22.8106 17.3311 22.8386 17.5213 22.8386 17.7293C22.8386 17.9893 22.7973 18.2499 22.7153 18.5107C22.6333 18.7702 22.5116 19.0048 22.3509 19.2133C22.1905 19.4214 21.9899 19.5917 21.749 19.7239C21.5084 19.8562 21.2294 19.9226 20.9126 19.9226V19.9226ZM21.394 17.1373C21.2513 17.1373 21.125 17.1787 21.0169 17.2606C20.9085 17.3434 20.8173 17.4476 20.7439 17.5732C20.6696 17.6993 20.6146 17.8369 20.5774 17.9865C20.5405 18.1363 20.5224 18.278 20.5224 18.4126C20.5224 18.6298 20.5575 18.7989 20.6263 18.9207C20.6962 19.0418 20.8216 19.1027 21.0039 19.1027C21.1472 19.1027 21.2728 19.0615 21.3815 18.9788C21.4894 18.8966 21.5806 18.7924 21.6546 18.6665C21.7283 18.541 21.7839 18.403 21.8211 18.2532C21.8575 18.1039 21.876 17.9614 21.876 17.827C21.876 17.6104 21.8411 17.4408 21.7716 17.3193C21.7022 17.1982 21.5762 17.1373 21.394 17.1373Z" fill="white"/>
<path d="M23.8855 19.8322H22.9214L23.7349 16.4093H24.7052L23.8855 19.8322V19.8322ZM24.3535 15.9922C24.2191 15.9922 24.0973 15.9522 23.9893 15.872C23.8808 15.7923 23.8263 15.6696 23.8263 15.5042C23.8263 15.4133 23.8451 15.3279 23.8818 15.2474C23.9185 15.1671 23.9674 15.0979 24.0284 15.0391C24.0889 14.9807 24.16 14.9341 24.2399 14.899C24.3199 14.8644 24.4055 14.8472 24.4965 14.8472C24.6312 14.8472 24.7528 14.8872 24.8612 14.9674C24.9696 15.048 25.0243 15.1707 25.0243 15.3352C25.0243 15.4265 25.0048 15.5121 24.9684 15.5925C24.932 15.6728 24.8831 15.742 24.8224 15.8008C24.7614 15.8593 24.6911 15.9057 24.6111 15.9405C24.5304 15.9756 24.4449 15.9922 24.3535 15.9922V15.9922Z" fill="white"/>
<path d="M25.4022 16.5646C25.4753 16.5433 25.5569 16.5176 25.6457 16.4896C25.7348 16.4616 25.8344 16.4356 25.9456 16.4121C26.0556 16.3879 26.1798 16.3683 26.3163 16.3531C26.4528 16.3376 26.6084 16.3301 26.7812 16.3301C27.2892 16.3301 27.6394 16.478 27.8328 16.773C28.0259 17.068 28.0594 17.4717 27.934 17.9834L27.4909 19.8316H26.5214L26.9508 18.0223C26.977 17.9093 26.9976 17.8001 27.0127 17.6934C27.0281 17.5877 27.0272 17.4944 27.0093 17.4138C26.9922 17.3341 26.9518 17.2688 26.8892 17.2183C26.8257 17.1685 26.7296 17.1435 26.5994 17.1435C26.4738 17.1435 26.346 17.157 26.2156 17.1831L25.5842 19.8315H24.6143L25.4022 16.5646V16.5646Z" fill="white"/>
<path d="M22.7037 9.48768C22.1008 11.9054 19.6518 13.3768 17.2335 12.7739C14.8162 12.1711 13.3446 9.72222 13.9478 7.30463C14.5503 4.88663 16.9994 3.41509 19.4169 4.01786C21.8351 4.62064 23.3065 7.06981 22.7037 9.48768Z" fill="white"/>
<path d="M20.3158 7.75289C20.4056 7.15237 19.9483 6.82955 19.3231 6.61419L19.5259 5.80071L19.0307 5.67731L18.8332 6.46935C18.703 6.43691 18.5693 6.40631 18.4364 6.37598L18.6353 5.57873L18.1404 5.45532L17.9374 6.26852C17.8296 6.24398 17.7238 6.21972 17.6212 6.19419L17.6217 6.19165L16.9388 6.02115L16.807 6.55002C16.807 6.55002 17.1745 6.63422 17.1667 6.63943C17.3673 6.6895 17.4035 6.82221 17.3975 6.92742L17.1664 7.85415C17.1802 7.85767 17.1982 7.86275 17.2179 7.87065C17.2014 7.86656 17.1838 7.86205 17.1656 7.85767L16.8417 9.15588C16.8172 9.21681 16.755 9.3082 16.6148 9.2735C16.6197 9.28069 16.2548 9.18366 16.2548 9.18366L16.009 9.75048L16.6534 9.91111C16.7733 9.94115 16.8908 9.9726 17.0065 10.0022L16.8015 10.825L17.2962 10.9484L17.4992 10.1344C17.6343 10.171 17.7655 10.2049 17.8938 10.2368L17.6915 11.047L18.1868 11.1704L18.3917 10.3492C19.2362 10.5089 19.8712 10.4445 20.1385 9.6808C20.3539 9.0659 20.1277 8.7112 19.6834 8.47991C20.007 8.4053 20.2507 8.19249 20.3158 7.75289V7.75289ZM19.1843 9.33936C19.0312 9.95427 17.9958 9.62185 17.6601 9.5385L17.932 8.44846C18.2677 8.53223 19.3442 8.69809 19.1843 9.33936ZM19.3375 7.744C19.1978 8.30334 18.336 8.01916 18.0564 7.94949L18.303 6.96085C18.5826 7.03052 19.4829 7.16055 19.3375 7.744V7.744Z" fill="#F7931A"/>
</g>
<defs>
<clipPath id="clip0_31_5073">
<rect width="34.7354" height="22.2307" fill="white" transform="translate(0.958069 0.914551)"/>
</clipPath>
</defs>
</svg>
