<svg width="36" height="24" viewBox="0 0 36 24" fill="none" xmlns="http://www.w3.org/2000/svg">
<g clip-path="url(#clip0_31_5072)">
<rect x="0.665039" y="0.914551" width="34.7354" height="22.2307" rx="2.08412" fill="#2E408B"/>
<path d="M30.5375 9.49421H29.2505L28.49 12.6655L28.3729 13.106C28.2852 13.1354 28.2267 13.1354 28.1389 13.1647C28.0219 13.1941 27.9049 13.1941 27.7587 13.1941C27.5832 13.1941 27.4662 13.1647 27.3492 13.106C27.2614 13.0473 27.1737 12.9885 27.1444 12.9004C27.1152 12.8123 27.0859 12.6949 27.0859 12.5774C27.0859 12.46 27.1152 12.3132 27.1444 12.1957L27.5539 10.5513L27.8172 9.46484H26.5009L25.8866 12.0195C25.7989 12.3425 25.7696 12.6362 25.7696 12.8711C25.7696 13.1647 25.7989 13.3996 25.8866 13.6052C25.9744 13.8107 26.1499 13.9869 26.3839 14.1044C26.6179 14.2218 26.9397 14.2806 27.3199 14.2806C27.6124 14.2806 27.8757 14.2512 28.0804 14.1925H28.1097C28.0512 14.4567 27.9342 14.6623 27.7294 14.8385C27.5247 15.0147 27.2614 15.1027 26.9104 15.1027C26.7642 15.1027 26.5886 15.1027 26.4716 15.0734L26.2084 16.1305C26.3839 16.1599 26.5886 16.1599 26.7934 16.1599C27.2029 16.1599 27.5539 16.1011 27.8172 16.013C28.1097 15.9249 28.3729 15.7781 28.607 15.6019C28.8117 15.4258 29.0165 15.1908 29.1627 14.8972C29.309 14.6036 29.426 14.2806 29.5137 13.9282L30.3913 10.1402L30.5375 9.49421ZM25.1261 12.2251C25.0383 12.5481 25.0091 12.9004 25.0384 13.2234C25.0676 13.5758 25.2139 14.0456 25.3309 14.3099H24.0731C23.9268 14.0456 23.9268 13.9282 23.8976 13.8401C23.7221 13.9869 23.5466 14.075 23.3418 14.1631C23.137 14.2512 22.9323 14.3099 22.669 14.3099C22.3765 14.3099 22.1133 14.2512 21.9085 14.1631C21.7037 14.075 21.5282 13.9282 21.382 13.752C21.2357 13.5758 21.148 13.3703 21.0895 13.1354C21.031 12.9004 21.0017 12.6655 21.0017 12.3719C21.0017 11.9608 21.0895 11.5791 21.2065 11.2561C21.3527 10.9037 21.5575 10.5807 21.8208 10.3458C22.084 10.0815 22.669 9.49421 23.6928 9.49421H25.7111L25.1261 12.2251ZM24.1901 10.61C23.5758 10.61 23.4588 10.61 23.2248 10.7275C23.0493 10.8156 22.903 10.9624 22.7568 11.1386C22.6398 11.2854 22.5228 11.491 22.435 11.6965C22.3473 11.9021 22.318 12.137 22.318 12.3719C22.318 12.6655 22.3765 12.8711 22.4643 13.0473C22.552 13.2234 22.7275 13.2822 22.9908 13.2822C23.137 13.2822 23.254 13.2528 23.371 13.1941C23.4881 13.1354 23.6051 13.0473 23.7221 12.9298C23.7221 12.783 23.7513 12.6362 23.7806 12.46C23.8098 12.2838 23.8391 12.137 23.8683 12.0195L24.1901 10.61ZM20.7092 11.4029C20.7092 11.8433 20.6215 12.2251 20.5045 12.5774C20.3582 12.9298 20.1535 13.2528 19.9194 13.4877C19.6562 13.752 19.3637 13.9575 19.0419 14.1044C18.6909 14.2512 18.3106 14.3393 17.9304 14.3393C17.7256 14.3393 17.5209 14.3099 17.3161 14.2806L16.9066 15.8662H15.6196L17.1114 9.52357H18.8372C19.1589 9.52357 19.4514 9.5823 19.6562 9.67039C19.8902 9.75848 20.095 9.9053 20.2412 10.0815C20.3875 10.2577 20.5045 10.4632 20.5922 10.6981C20.68 10.9037 20.7092 11.1386 20.7092 11.4029ZM17.5209 13.1941C17.6086 13.2234 17.7549 13.2234 17.9011 13.2234C18.1351 13.2234 18.3399 13.1941 18.5447 13.106C18.7202 13.0179 18.8957 12.9004 19.0419 12.7536C19.1882 12.6068 19.2759 12.4013 19.3637 12.1957C19.4514 11.9902 19.4807 11.7259 19.4807 11.4616C19.4807 11.1973 19.4222 10.9918 19.3052 10.8156C19.1882 10.6394 18.9834 10.5513 18.7202 10.5513H18.1936L17.5209 13.1941ZM14.8298 13.1941C14.6543 13.1941 14.5373 13.1647 14.4203 13.106C14.3325 13.0473 14.2448 12.9885 14.2155 12.9004C14.1863 12.8123 14.157 12.6949 14.157 12.5774C14.157 12.46 14.1863 12.3132 14.2155 12.1957L14.625 10.5513H16.0876L16.3508 9.46484H14.859L15.2101 8.08473L13.8353 8.31964L12.9577 12.0489C12.87 12.3719 12.8407 12.6655 12.8407 12.9004C12.8407 13.1941 12.87 13.429 12.9577 13.6345C13.0455 13.8401 13.221 14.0163 13.455 14.1337C13.689 14.2512 14.0108 14.3099 14.391 14.3099C14.6835 14.3099 14.9468 14.2806 15.1516 14.2218C15.1808 14.2218 15.2101 14.2218 15.2393 14.1925L15.5026 13.0766C15.4148 13.106 15.3271 13.1354 15.2393 13.1354C15.0931 13.1941 14.976 13.1941 14.8298 13.1941ZM11.5244 9.49421L10.3837 14.3099H11.6707L12.8115 9.49421H11.5244V9.49421ZM12.9285 8.93629L13.1332 8.11409H11.8462L11.6414 8.93629H12.9285ZM8.65786 9.49421C8.95037 9.49421 9.18437 9.55293 9.38913 9.64103C9.59389 9.72912 9.76939 9.87594 9.91565 10.0521C10.0619 10.2283 10.1497 10.4339 10.2082 10.6688C10.2667 10.9037 10.2959 11.1386 10.2959 11.4029C10.2959 11.814 10.2082 12.1957 10.0619 12.5481C9.91565 12.9004 9.71089 13.2234 9.44763 13.4877C9.18437 13.7814 8.89187 13.9575 8.54086 14.1337C8.18984 14.2806 7.80958 14.3686 7.42932 14.3686H7.10756C6.96131 14.3686 6.81505 14.3686 6.63955 14.3393C6.46404 14.3099 6.28854 14.2806 6.08378 14.2218C5.87903 14.1631 5.70352 14.1044 5.52802 14.0163L7.04906 7.64427L8.3946 7.43872L7.83883 9.69976C7.95584 9.64103 8.07284 9.61166 8.18984 9.5823C8.3946 9.49421 8.5116 9.49421 8.65786 9.49421ZM7.48782 13.2528C7.69258 13.2528 7.89734 13.1941 8.07284 13.106C8.24835 13.0179 8.42385 12.8711 8.54086 12.6949C8.68711 12.5187 8.77486 12.3425 8.86261 12.137C8.95037 11.9314 8.97962 11.6965 8.97962 11.4616C8.97962 11.168 8.92112 10.9624 8.83336 10.7862C8.74561 10.6394 8.54086 10.5513 8.2776 10.5513C8.18984 10.5513 8.10209 10.5513 7.98509 10.5807C7.83883 10.61 7.75108 10.6688 7.63408 10.7569L7.04906 13.1647C7.22457 13.1941 7.28307 13.1941 7.31232 13.1941C7.37082 13.2528 7.42932 13.2528 7.48782 13.2528Z" fill="white"/>
</g>
<defs>
<clipPath id="clip0_31_5072">
<rect width="34.7354" height="22.2307" fill="white" transform="translate(0.665039 0.914551)"/>
</clipPath>
</defs>
</svg>
