<svg width="146" height="31" viewBox="0 0 146 31" fill="none" xmlns="http://www.w3.org/2000/svg">
<path d="M1.91006 17.9281V6.09027H6.24504C7.23431 6.09027 8.06796 6.42929 8.74599 7.10732C9.42403 7.77424 9.76304 8.58011 9.76304 9.52491C9.76304 10.3808 9.45182 11.0866 8.82936 11.6424C9.99647 12.2204 10.58 13.1541 10.58 14.4434C10.58 15.4327 10.2299 16.2608 9.52962 16.9277C8.82936 17.5946 7.9568 17.9281 6.91196 17.9281H1.91006ZM4.32765 15.7106H6.74523C7.20096 15.7106 7.56221 15.5883 7.82898 15.3438C8.09575 15.0881 8.22913 14.7602 8.22913 14.3601C8.22913 13.9599 8.09575 13.632 7.82898 13.3764C7.56221 13.1207 7.20096 12.9929 6.74523 12.9929H4.32765V15.7106ZM4.32765 10.9421H6.01162C6.434 10.9421 6.77302 10.8198 7.02867 10.5753C7.28433 10.3197 7.41215 10.0029 7.41215 9.62495C7.41215 9.25814 7.27877 8.94691 7.012 8.69126C6.75635 8.42449 6.42289 8.29111 6.01162 8.29111H4.32765V10.9421ZM12.4772 17.9281V6.09027H17.0123C18.0905 6.09027 18.963 6.42373 19.6299 7.09065C20.308 7.75757 20.647 8.59122 20.647 9.5916C20.647 11.1477 19.8356 12.1759 18.2127 12.6761L22.4644 17.9281H19.5466L15.4784 12.9429H14.8948V17.9281H12.4772ZM14.8948 10.8754H16.7288C17.1957 10.8754 17.5625 10.7643 17.8293 10.542C18.1071 10.3085 18.2461 9.99175 18.2461 9.5916C18.2461 9.19145 18.1071 8.88022 17.8293 8.65791C17.5625 8.42449 17.1957 8.30778 16.7288 8.30778H14.8948V10.8754ZM22.1184 17.9281L27.2203 6.09027H29.3711L34.4898 17.9281H31.9555L30.805 15.2271H25.7531L24.6193 17.9281H22.1184ZM28.2874 9.27481L26.6534 13.1096H29.9047L28.2874 9.27481ZM46.3803 17.9281H44.2962L38.2272 10.2085V17.9281H35.8097V6.09027H37.8938L43.9628 13.8099V6.09027H46.3803V17.9281ZM49.0145 17.9281V6.09027H52.916C54.6167 6.09027 56.0561 6.66271 57.2343 7.80759C58.4126 8.95247 59.0017 10.353 59.0017 12.0092C59.0017 13.6654 58.4126 15.0659 57.2343 16.2108C56.0561 17.3557 54.6167 17.9281 52.916 17.9281H49.0145ZM51.4321 15.7106H52.916C53.9942 15.7106 54.8723 15.3549 55.5504 14.6435C56.2284 13.9321 56.5674 13.054 56.5674 12.0092C56.5674 10.9643 56.2284 10.0862 55.5504 9.37485C54.8723 8.66347 53.9942 8.30778 52.916 8.30778H51.4321V15.7106ZM64.7509 18.1282C63.4059 18.1282 62.3222 17.7447 61.4996 16.9777C60.6771 16.1997 60.2436 15.2938 60.1991 14.26H62.6167C62.7056 14.7825 62.9446 15.1882 63.3337 15.4772C63.7227 15.7551 64.1951 15.894 64.7509 15.894C65.251 15.894 65.6568 15.7884 65.968 15.5772C66.2792 15.3549 66.4348 15.0603 66.4348 14.6935C66.4348 14.0377 65.9068 13.5598 64.8509 13.2597L63.6004 12.8929C62.6334 12.615 61.8775 12.1815 61.3329 11.5924C60.7882 11.0032 60.5104 10.2696 60.4992 9.39152C60.4992 8.31334 60.8605 7.46301 61.583 6.84056C62.3055 6.20698 63.267 5.89019 64.4674 5.89019C65.679 5.89019 66.6627 6.257 67.4185 6.99061C68.1744 7.71311 68.5745 8.54676 68.619 9.49156H66.2181C66.0958 9.02472 65.8735 8.68014 65.5512 8.45784C65.2288 8.23553 64.8676 8.12438 64.4674 8.12438C64.0228 8.12438 63.656 8.22442 63.367 8.42449C63.0891 8.61345 62.9446 8.88022 62.9335 9.2248C62.9224 9.58049 63.0391 9.86948 63.2836 10.0918C63.5282 10.3141 63.9061 10.4975 64.4174 10.642L65.8013 11.0255C67.8465 11.5924 68.8691 12.7873 68.8691 14.6102C68.8691 15.6328 68.4856 16.4775 67.7186 17.1445C66.9628 17.8003 65.9735 18.1282 64.7509 18.1282ZM74.6265 17.9281V6.09027H81.8292V8.39115H77.0441V10.8421H80.7955V13.143H77.0441V17.9281H74.6265ZM86.2525 14.6935C86.975 15.4272 87.8476 15.794 88.8702 15.794C89.8928 15.794 90.7598 15.4272 91.4712 14.6935C92.1937 13.9488 92.5549 13.054 92.5549 12.0092C92.5549 10.9643 92.1937 10.0751 91.4712 9.34151C90.7598 8.59678 89.8928 8.22442 88.8702 8.22442C87.8476 8.22442 86.975 8.59678 86.2525 9.34151C85.5411 10.0751 85.1854 10.9643 85.1854 12.0092C85.1854 13.054 85.5411 13.9488 86.2525 14.6935ZM93.1885 16.3442C91.9991 17.5335 90.5597 18.1282 88.8702 18.1282C87.1806 18.1282 85.7356 17.5335 84.5352 16.3442C83.3458 15.1437 82.7512 13.6987 82.7512 12.0092C82.7512 10.3197 83.3458 8.88022 84.5352 7.69088C85.7356 6.49042 87.1806 5.89019 88.8702 5.89019C90.5597 5.89019 91.9991 6.49042 93.1885 7.69088C94.3889 8.88022 94.9892 10.3197 94.9892 12.0092C94.9892 13.6987 94.3889 15.1437 93.1885 16.3442ZM96.9168 17.9281V6.09027H101.452C102.53 6.09027 103.403 6.42373 104.07 7.09065C104.748 7.75757 105.087 8.59122 105.087 9.5916C105.087 11.1477 104.275 12.1759 102.652 12.6761L106.904 17.9281H103.986L99.918 12.9429H99.3344V17.9281H96.9168ZM99.3344 10.8754H101.168C101.635 10.8754 102.002 10.7643 102.269 10.542C102.547 10.3085 102.686 9.99175 102.686 9.5916C102.686 9.19145 102.547 8.88022 102.269 8.65791C102.002 8.42449 101.635 8.30778 101.168 8.30778H99.3344V10.8754ZM114.105 17.9281V12.9429L109.737 6.09027H112.538L115.305 10.5753L118.09 6.09027H120.907L116.522 12.9595V17.9281H114.105ZM124.239 14.6935C124.961 15.4272 125.834 15.794 126.857 15.794C127.879 15.794 128.746 15.4272 129.458 14.6935C130.18 13.9488 130.541 13.054 130.541 12.0092C130.541 10.9643 130.18 10.0751 129.458 9.34151C128.746 8.59678 127.879 8.22442 126.857 8.22442C125.834 8.22442 124.961 8.59678 124.239 9.34151C123.528 10.0751 123.172 10.9643 123.172 12.0092C123.172 13.054 123.528 13.9488 124.239 14.6935ZM131.175 16.3442C129.986 17.5335 128.546 18.1282 126.857 18.1282C125.167 18.1282 123.722 17.5335 122.522 16.3442C121.332 15.1437 120.738 13.6987 120.738 12.0092C120.738 10.3197 121.332 8.88022 122.522 7.69088C123.722 6.49042 125.167 5.89019 126.857 5.89019C128.546 5.89019 129.986 6.49042 131.175 7.69088C132.375 8.88022 132.976 10.3197 132.976 12.0092C132.976 13.6987 132.375 15.1437 131.175 16.3442ZM139.588 18.1282C138.155 18.1282 136.993 17.6836 136.104 16.7943C135.215 15.9051 134.77 14.7269 134.77 13.2597V6.09027H137.187V13.293C137.187 14.0711 137.404 14.6824 137.838 15.127C138.271 15.5717 138.855 15.794 139.588 15.794C140.322 15.794 140.906 15.5717 141.339 15.127C141.773 14.6824 141.989 14.0711 141.989 13.293V6.09027H144.407V13.2597C144.407 14.7158 143.957 15.894 143.056 16.7943C142.156 17.6836 141 18.1282 139.588 18.1282Z" fill="#374151"/>
<rect x="42.6228" y="27.327" width="61.1343" height="2.77883" rx="1.38942" fill="#374151"/>
</svg>
