<svg width="36" height="23" viewBox="0 0 36 23" fill="none" xmlns="http://www.w3.org/2000/svg">
<g clip-path="url(#clip0_31_5064)">
<rect x="0.958069" y="0.126221" width="34.7354" height="22.2307" rx="2.08412" fill="#F8F8F8"/>
<mask id="mask0_31_5064" style="mask-type:alpha" maskUnits="userSpaceOnUse" x="0" y="0" width="36" height="23">
<rect x="0.958069" y="0.126221" width="34.7354" height="22.2307" rx="2.08412" fill="#F9F9F9"/>
</mask>
<g mask="url(#mask0_31_5064)">
<path d="M10.9988 22.3568H34.5537C35.1779 22.3568 35.6935 21.8412 35.6935 21.2171V13.2388C33.4411 14.677 24.9201 19.616 10.9988 22.3568Z" fill="#F58220"/>
</g>
<path d="M6.32244 9.13843H5.12634V13.3158H6.31611C6.94875 13.3158 7.40559 13.1666 7.80658 12.8336C8.2831 12.4392 8.56493 11.8448 8.56493 11.23C8.56506 9.99732 7.64392 9.13843 6.32244 9.13843ZM7.27435 12.2766C7.01827 12.5078 6.68581 12.6086 6.15931 12.6086H5.94067V9.84627H6.15931C6.68581 9.84627 7.00526 9.94041 7.27435 10.1841C7.55618 10.4349 7.72565 10.8239 7.72565 11.2239C7.72565 11.625 7.55618 12.0258 7.27435 12.2766Z" fill="#231F20"/>
<path d="M9.7548 9.13843H8.93994V13.3158H9.7548V9.13843Z" fill="#231F20"/>
<path d="M11.7473 10.7414C11.2584 10.5605 11.1148 10.4412 11.1148 10.2155C11.1148 9.95232 11.3706 9.75249 11.7218 9.75249C11.966 9.75249 12.1665 9.85277 12.3788 10.0908L12.8052 9.53251C12.4548 9.226 12.0356 9.06934 11.5777 9.06934C10.8385 9.06934 10.2747 9.58262 10.2747 10.2663C10.2747 10.8418 10.5372 11.1365 11.3025 11.4118C11.6216 11.5243 11.7839 11.5993 11.8658 11.6497C12.0286 11.756 12.1101 11.9066 12.1101 12.0819C12.1101 12.4204 11.8411 12.6711 11.4775 12.6711C11.0889 12.6711 10.7758 12.4768 10.5882 12.114L10.0619 12.6209C10.4373 13.172 10.8882 13.4163 11.5082 13.4163C12.3549 13.4163 12.949 12.8533 12.949 12.0446C12.9488 11.3809 12.6743 11.0804 11.7473 10.7414Z" fill="#231F20"/>
<path d="M13.2059 11.2299C13.2059 12.4577 14.1701 13.4098 15.4109 13.4098C15.7617 13.4098 16.0621 13.3408 16.4325 13.1664V12.2073C16.1067 12.5333 15.8182 12.6648 15.4488 12.6648C14.6282 12.6648 14.0458 12.0698 14.0458 11.2238C14.0458 10.4218 14.6466 9.78904 15.411 9.78904C15.7996 9.78904 16.0938 9.92775 16.4326 10.2591V9.30031C16.0749 9.11883 15.7809 9.0437 15.4302 9.0437C14.1955 9.0439 13.2059 10.0154 13.2059 11.2299Z" fill="#231F20"/>
<path d="M22.8931 11.9444L21.779 9.13843H20.8889L22.6618 13.423H23.1002L24.9048 9.13843H24.0215L22.8931 11.9444Z" fill="#231F20"/>
<path d="M25.2734 13.3158H27.5842V12.6087H26.0876V11.4811H27.5291V10.7735H26.0876V9.84627H27.5842V9.13843H25.2734V13.3158Z" fill="#231F20"/>
<path d="M30.8104 10.3717C30.8104 9.58959 30.2717 9.13843 29.332 9.13843H28.1238V13.3158H28.9377V11.6377H29.044L30.1718 13.3159H31.1738L29.8588 11.5559C30.4725 11.4312 30.8104 11.0113 30.8104 10.3717ZM29.1758 11.0617H28.9378V9.79643H29.1886C29.6961 9.79643 29.972 10.0091 29.972 10.4156C29.972 10.8356 29.6962 11.0617 29.1758 11.0617Z" fill="#231F20"/>
<path d="M18.9208 13.4638C20.1481 13.4638 21.1431 12.4689 21.1431 11.2416C21.1431 10.0142 20.1481 9.01929 18.9208 9.01929C17.6935 9.01929 16.6985 10.0142 16.6985 11.2416C16.6985 12.4689 17.6935 13.4638 18.9208 13.4638Z" fill="url(#paint0_linear_31_5064)"/>
<path opacity="0.65" d="M18.9208 13.4638C20.1481 13.4638 21.1431 12.4689 21.1431 11.2416C21.1431 10.0142 20.1481 9.01929 18.9208 9.01929C17.6935 9.01929 16.6985 10.0142 16.6985 11.2416C16.6985 12.4689 17.6935 13.4638 18.9208 13.4638Z" fill="url(#paint1_linear_31_5064)"/>
<path d="M31.3307 9.29542C31.3307 9.22216 31.2802 9.18213 31.1916 9.18213H31.0737V9.54929H31.1613V9.40684L31.2641 9.54929H31.371L31.2503 9.3979C31.3022 9.38403 31.3307 9.3464 31.3307 9.29542ZM31.1762 9.34559H31.1614V9.24958H31.1771C31.2204 9.24958 31.2431 9.2652 31.2431 9.29682C31.2431 9.32918 31.2202 9.34559 31.1762 9.34559Z" fill="#231F20"/>
<path d="M31.2093 9.04517C31.031 9.04517 30.8895 9.18741 30.8895 9.36523C30.8895 9.54297 31.0326 9.68542 31.2093 9.68542C31.383 9.68542 31.5253 9.54137 31.5253 9.36523C31.5253 9.18982 31.3829 9.04517 31.2093 9.04517ZM31.2079 9.62817C31.0676 9.62817 30.9528 9.51141 30.9528 9.36569C30.9528 9.21951 31.0661 9.10281 31.2079 9.10281C31.3476 9.10281 31.4614 9.22218 31.4614 9.36569C31.4614 9.51014 31.3477 9.62817 31.2079 9.62817Z" fill="#231F20"/>
</g>
<defs>
<linearGradient id="paint0_linear_31_5064" x1="20.0583" y1="13.0225" x2="18.5196" y2="10.6134" gradientUnits="userSpaceOnUse">
<stop stop-color="#F89F21"/>
<stop offset="0.2502" stop-color="#F79A23"/>
<stop offset="0.5331" stop-color="#F78E22"/>
<stop offset="0.6196" stop-color="#F68721"/>
<stop offset="0.7232" stop-color="#F48220"/>
<stop offset="1" stop-color="#F27623"/>
</linearGradient>
<linearGradient id="paint1_linear_31_5064" x1="19.8153" y1="12.9898" x2="17.5664" y2="8.59432" gradientUnits="userSpaceOnUse">
<stop stop-color="#F68721" stop-opacity="0"/>
<stop offset="0.3587" stop-color="#E27027" stop-opacity="0.2704"/>
<stop offset="0.703" stop-color="#D4612C" stop-opacity="0.5299"/>
<stop offset="0.9816" stop-color="#D15D2D" stop-opacity="0.74"/>
</linearGradient>
<clipPath id="clip0_31_5064">
<rect width="34.7354" height="22.2307" fill="white" transform="translate(0.958069 0.126221)"/>
</clipPath>
</defs>
</svg>
