<svg width="35" height="23" viewBox="0 0 35 23" fill="none" xmlns="http://www.w3.org/2000/svg">
<g clip-path="url(#clip0_31_5061)">
<rect x="0.0788574" y="0.126221" width="34.7354" height="22.2307" rx="2.08412" fill="black"/>
<path d="M7.66065 8.2605C5.79866 8.2605 4.24707 9.05045 4.24707 11.4337C4.24707 13.3217 5.2904 14.5107 7.70873 14.5107C10.5552 14.5107 10.7377 12.6357 10.7377 12.6357H9.35843C9.35843 12.6357 9.06271 13.6453 7.62459 13.6453C6.45329 13.6453 5.61084 12.8541 5.61084 11.745H10.8819V11.0491C10.8819 9.95186 10.1854 8.2605 7.66065 8.2605V8.2605ZM7.61257 9.14995C8.72753 9.14995 9.48764 9.833 9.48764 10.8567H5.64135C5.64135 9.76991 6.63348 9.14995 7.61257 9.14995V9.14995Z" fill="#E53238"/>
<path d="M10.881 5.95288V13.314C10.881 13.7319 10.8512 14.3186 10.8512 14.3186H12.1667C12.1667 14.3186 12.2139 13.8972 12.2139 13.5121C12.2139 13.5121 12.8639 14.5289 14.6312 14.5289C16.4922 14.5289 17.7563 13.2369 17.7563 11.3858C17.7563 9.66371 16.5951 8.27868 14.6342 8.27868C12.7978 8.27868 12.2272 9.27031 12.2272 9.27031V5.95288H10.881ZM14.2946 9.18917C15.5584 9.18917 16.362 10.1271 16.362 11.3858C16.362 12.7355 15.4338 13.6184 14.3036 13.6184C12.9548 13.6184 12.2272 12.5653 12.2272 11.3978C12.2272 10.3099 12.8801 9.18917 14.2946 9.18917Z" fill="#0064D2"/>
<path d="M21.0255 8.2605C18.2243 8.2605 18.0446 9.79431 18.0446 10.0394H19.4389C19.4389 10.0394 19.512 9.14394 20.9294 9.14394C21.8504 9.14394 22.564 9.5655 22.564 10.376V10.6644H20.9294C18.7592 10.6644 17.6119 11.2993 17.6119 12.5876C17.6119 13.8554 18.672 14.5453 20.1045 14.5453C22.0568 14.5453 22.6857 13.4665 22.6857 13.4665C22.6857 13.8956 22.7188 14.3184 22.7188 14.3184H23.9583C23.9583 14.3184 23.9102 13.7943 23.9102 13.459V10.5608C23.9102 8.66042 22.3774 8.2605 21.0255 8.2605V8.2605ZM22.564 11.5298V11.9145C22.564 12.4161 22.2545 13.6633 20.4321 13.6633C19.4341 13.6633 19.0062 13.1653 19.0062 12.5876C19.0062 11.5366 20.4471 11.5298 22.564 11.5298V11.5298Z" fill="#F5AF02"/>
<path d="M23.1594 8.50146H24.728L26.9791 13.0114L29.2251 8.50146H30.646L26.555 16.5306H25.0645L26.245 14.2924L23.1594 8.50146Z" fill="#86B817"/>
</g>
<defs>
<clipPath id="clip0_31_5061">
<rect width="34.7354" height="22.2307" fill="white" transform="translate(0.0788574 0.126221)"/>
</clipPath>
</defs>
</svg>
