<svg width="23" height="23" viewBox="0 0 23 23" fill="none" xmlns="http://www.w3.org/2000/svg">
<g clip-path="url(#clip0_31_5002)">
<path fill-rule="evenodd" clip-rule="evenodd" d="M11.5732 0.811768C13.5772 0.834635 15.3875 1.32714 17.0043 2.28929C18.6018 3.23224 19.9307 4.56925 20.8639 6.17248C21.8202 7.79901 22.3098 9.62034 22.3325 11.6365C22.2758 14.3951 21.4057 16.7511 19.7223 18.7047C18.039 20.6584 15.883 21.867 13.6511 22.3303V14.5961H15.7612L16.2383 11.5568H13.0433V9.56609C13.0255 9.1534 13.156 8.74799 13.4112 8.42316C13.6667 8.09743 14.1167 7.92624 14.7611 7.90956H16.6905V5.24716C16.6628 5.23826 16.4001 5.20303 15.9024 5.1415C15.338 5.07546 14.7704 5.04018 14.2021 5.03583C12.916 5.04177 11.8988 5.40457 11.1506 6.12424C10.4023 6.84371 10.0201 7.88463 10.0039 9.24699V11.5568H7.57244V14.5961H10.0039V22.3303C7.26352 21.867 5.10753 20.6584 3.42417 18.7047C1.7408 16.7511 0.870766 14.395 0.813965 11.6365C0.83669 9.62025 1.32622 7.79891 2.28256 6.17248C3.21576 4.56925 4.54466 3.23224 6.14217 2.28929C7.75891 1.32733 9.56927 0.83482 11.5732 0.811768Z" fill="#1F2937"/>
</g>
<defs>
<clipPath id="clip0_31_5002">
<rect width="22.2307" height="22.2307" fill="white" transform="translate(0.492676 0.475098)"/>
</clipPath>
</defs>
</svg>
