<svg width="36" height="23" viewBox="0 0 36 23" fill="none" xmlns="http://www.w3.org/2000/svg">
<g clip-path="url(#clip0_31_5062)">
<rect x="0.371948" y="0.126221" width="34.7354" height="22.2307" rx="2.08412" fill="#5485EC"/>
<path d="M17.025 11.816V14.8888H16.0502V7.30031H18.6356C18.9442 7.29387 19.251 7.3486 19.5384 7.46136C19.8257 7.57411 20.0879 7.74266 20.3098 7.95726C20.5339 8.15884 20.7122 8.40606 20.8328 8.68229C20.9535 8.95853 21.0136 9.25738 21.0091 9.55877C21.0155 9.86177 20.9563 10.1626 20.8356 10.4406C20.7149 10.7186 20.5355 10.9672 20.3098 11.1694C19.8577 11.6005 19.2996 11.8158 18.6356 11.8154H17.025V11.816ZM17.025 8.23458V10.8836H18.6598C18.839 10.8889 19.0174 10.8567 19.1835 10.7892C19.3496 10.7216 19.4997 10.6201 19.6243 10.4912C19.7483 10.3707 19.8469 10.2265 19.9142 10.0672C19.9814 9.90797 20.0161 9.73682 20.0161 9.56392C20.0161 9.39101 19.9814 9.21986 19.9142 9.06059C19.8469 8.90131 19.7483 8.75715 19.6243 8.63662C19.5013 8.50499 19.3516 8.40102 19.1854 8.3316C19.0191 8.26219 18.8399 8.22891 18.6598 8.23397H17.025V8.23458Z" fill="white"/>
<path d="M23.2556 9.52759C23.9761 9.52759 24.5449 9.72013 24.9619 10.1052C25.3788 10.4903 25.5871 11.0183 25.5867 11.6892V14.8891H24.6543V14.1686H24.6119C24.2082 14.762 23.6714 15.0587 23.0013 15.0587C22.4293 15.0587 21.9508 14.8891 21.5657 14.5501C21.3809 14.3945 21.2331 14.1996 21.1332 13.9796C21.0333 13.7596 20.9837 13.5201 20.9881 13.2786C20.9881 12.7413 21.1911 12.314 21.5972 11.9968C22.0033 11.6795 22.5454 11.5204 23.2235 11.5196C23.8023 11.5196 24.2791 11.6256 24.6537 11.8375V11.6147C24.6548 11.45 24.6192 11.2871 24.5496 11.1379C24.4799 10.9887 24.3779 10.8568 24.251 10.7519C23.9932 10.5193 23.6573 10.3924 23.3101 10.3965C22.7656 10.3965 22.3347 10.6261 22.0174 11.0855L21.1588 10.5448C21.6311 9.86666 22.33 9.52759 23.2556 9.52759ZM21.9944 13.2998C21.9937 13.4238 22.0227 13.5462 22.079 13.6568C22.1352 13.7674 22.2171 13.863 22.3177 13.9355C22.5333 14.1051 22.8009 14.1949 23.0752 14.1898C23.4865 14.1891 23.8808 14.0254 24.1717 13.7345C24.4946 13.4305 24.6561 13.0739 24.6561 12.6646C24.3521 12.4224 23.9283 12.3013 23.3846 12.3013C22.9886 12.3013 22.6584 12.3968 22.394 12.5877C22.127 12.7815 21.9944 13.017 21.9944 13.2998V13.2998Z" fill="white"/>
<path d="M30.9391 9.69702L27.684 17.1778H26.6777L27.8856 14.5603L25.7452 9.69702H26.8048L28.3518 13.4268H28.373L29.8777 9.69702H30.9391Z" fill="white"/>
<path d="M13.0859 11.1538C13.0862 10.8567 13.0611 10.5601 13.0108 10.2673H8.89954V11.9463H11.2543C11.2061 12.2145 11.1041 12.4701 10.9545 12.6978C10.8048 12.9255 10.6106 13.1205 10.3836 13.2711V14.361H11.7889C12.6118 13.6023 13.0859 12.4804 13.0859 11.1538Z" fill="white"/>
<path d="M8.89947 15.4138C10.0759 15.4138 11.0665 15.0275 11.7888 14.3615L10.3835 13.2716C9.99237 13.5368 9.48861 13.6882 8.89947 13.6882C7.76237 13.6882 6.79723 12.9216 6.45211 11.8887H5.00439V13.0118C5.36724 13.7339 5.92363 14.3408 6.61143 14.765C7.29924 15.1891 8.0914 15.4138 8.89947 15.4138V15.4138Z" fill="white"/>
<path d="M6.45208 11.8891C6.26963 11.3478 6.26963 10.7616 6.45208 10.2203V9.09717H5.00437C4.69913 9.70456 4.54016 10.3749 4.54016 11.0547C4.54016 11.7345 4.69913 12.4048 5.00437 13.0122L6.45208 11.8891Z" fill="white"/>
<path d="M8.89947 8.42074C9.52118 8.41058 10.1219 8.64548 10.5718 9.07466L11.8161 7.83039C11.0271 7.08933 9.98185 6.68247 8.89947 6.69511C8.0914 6.69515 7.29924 6.91978 6.61143 7.34392C5.92363 7.76807 5.36724 8.37504 5.00439 9.09707L6.45211 10.2202C6.79723 9.18728 7.76237 8.42074 8.89947 8.42074Z" fill="white"/>
</g>
<defs>
<clipPath id="clip0_31_5062">
<rect width="34.7354" height="22.2307" fill="white" transform="translate(0.371948 0.126221)"/>
</clipPath>
</defs>
</svg>
