<svg width="23" height="23" viewBox="0 0 23 23" fill="none" xmlns="http://www.w3.org/2000/svg">
<g clip-path="url(#clip0_31_5006)">
<path fill-rule="evenodd" clip-rule="evenodd" d="M11.3001 9.16037C12.8032 9.16037 14.0218 10.3601 14.0218 11.84C14.0218 13.3196 12.8032 14.5193 11.3001 14.5193C9.7969 14.5193 8.57834 13.3196 8.57834 11.84C8.57834 10.3601 9.7969 9.16037 11.3001 9.16037ZM11.3001 8.08888C9.19563 8.08888 7.48965 9.76824 7.48965 11.84C7.48965 13.9114 9.19563 15.5911 11.3001 15.5911C13.4045 15.5911 15.1104 13.9114 15.1104 11.84C15.1104 9.76824 13.4045 8.08888 11.3001 8.08888ZM15.2281 7.18716C15.0169 7.19047 14.8113 7.25614 14.6372 7.37593C14.4632 7.49571 14.3284 7.66426 14.2498 7.8604C14.1713 8.05655 14.1524 8.27153 14.1957 8.47835C14.2389 8.68517 14.3423 8.87459 14.4929 9.02282C14.6435 9.17105 14.8345 9.27148 15.042 9.31148C15.2494 9.35148 15.4641 9.32928 15.659 9.24766C15.8539 9.16604 16.0203 9.02864 16.1373 8.85273C16.2544 8.67682 16.3168 8.47024 16.3168 8.25895C16.3145 7.97246 16.1986 7.69861 15.9944 7.49761C15.7902 7.29662 15.5146 7.18495 15.2281 7.18716ZM8.64031 6.0207H13.9598C15.6904 6.0207 17.0933 7.40176 17.0933 9.10516V14.5745C17.0933 16.2782 15.6904 17.659 13.9598 17.659H8.64031C6.90977 17.659 5.50687 16.2782 5.50687 14.5745V9.10516C5.50687 7.40176 6.90975 6.0207 8.64031 6.0207ZM8.13861 4.95395C6.08163 4.95395 4.4141 6.59564 4.4141 8.62047V15.0592C4.4141 17.0843 6.08161 18.7257 8.13861 18.7257H14.4615C16.5185 18.7257 18.186 17.0843 18.186 15.0592V8.62047C18.186 6.59562 16.5185 4.95395 14.4615 4.95395H8.13861ZM11.3001 1.08057C17.2423 1.08057 22.0593 5.8975 22.0593 11.84C22.0593 17.7822 17.2423 22.5991 11.3001 22.5991C5.35785 22.5991 0.540771 17.7822 0.540771 11.84C0.540771 5.89752 5.35785 1.08057 11.3001 1.08057Z" fill="#1F2937"/>
</g>
<defs>
<clipPath id="clip0_31_5006">
<rect width="22.2307" height="22.2307" fill="white" transform="translate(0.184692 0.475098)"/>
</clipPath>
</defs>
</svg>
