<svg width="36" height="23" viewBox="0 0 36 23" fill="none" xmlns="http://www.w3.org/2000/svg">
<g clip-path="url(#clip0_31_5059)">
<rect x="0.492676" y="0.126221" width="34.7354" height="22.2307" rx="2.08412" fill="#0F3560"/>
<path d="M20.8915 16.7052H14.8134V5.78174H20.8915V16.7052Z" fill="#FF5F00"/>
<path d="M15.2028 11.2426C15.2028 9.02674 16.2403 7.0529 17.856 5.78088C16.6745 4.85071 15.1834 4.29553 13.5629 4.29553C9.72652 4.29553 6.6167 7.4058 6.6167 11.2426C6.6167 15.0794 9.72652 18.1897 13.5629 18.1897C15.1834 18.1897 16.6745 17.6345 17.856 16.7043C16.2403 15.4323 15.2028 13.4585 15.2028 11.2426Z" fill="#EB001B"/>
<path d="M29.089 11.2426C29.089 15.0794 25.9791 18.1897 22.1428 18.1897C20.5223 18.1897 19.0312 17.6345 17.8492 16.7043C19.4653 15.4323 20.5028 13.4585 20.5028 11.2426C20.5028 9.02674 19.4653 7.0529 17.8492 5.78088C19.0312 4.85071 20.5223 4.29553 22.1428 4.29553C25.9791 4.29553 29.089 7.4058 29.089 11.2426Z" fill="#F79E1B"/>
<path d="M11.8436 11.2865C11.8436 10.983 12.0425 10.7338 12.3674 10.7338C12.6779 10.7338 12.8875 10.9723 12.8875 11.2865C12.8875 11.6007 12.6779 11.8392 12.3674 11.8392C12.0425 11.8392 11.8436 11.5899 11.8436 11.2865ZM13.2414 11.2865V10.4233H12.866V10.6329C12.747 10.4774 12.5663 10.3799 12.3207 10.3799C11.8366 10.3799 11.4571 10.7594 11.4571 11.2865C11.4571 11.814 11.8366 12.1931 12.3207 12.1931C12.5663 12.1931 12.747 12.0955 12.866 11.9401V12.1497H13.2414V11.2865ZM25.9266 11.2865C25.9266 10.983 26.1255 10.7338 26.4504 10.7338C26.7613 10.7338 26.9705 10.9723 26.9705 11.2865C26.9705 11.6007 26.7613 11.8392 26.4504 11.8392C26.1255 11.8392 25.9266 11.5899 25.9266 11.2865ZM27.3248 11.2865V9.72999H26.949V10.6329C26.8299 10.4774 26.6493 10.3799 26.4037 10.3799C25.9196 10.3799 25.5401 10.7594 25.5401 11.2865C25.5401 11.814 25.9196 12.1931 26.4037 12.1931C26.6493 12.1931 26.8299 12.0955 26.949 11.9401V12.1497H27.3248V11.2865ZM17.901 10.716C18.1429 10.716 18.2983 10.8677 18.338 11.1348H17.4421C17.4822 10.8855 17.6335 10.716 17.901 10.716ZM17.9084 10.3799C17.4024 10.3799 17.0485 10.7482 17.0485 11.2865C17.0485 11.8355 17.4169 12.1931 17.9337 12.1931C18.1937 12.1931 18.4318 12.1282 18.6414 11.9513L18.4575 11.673C18.3128 11.7884 18.1284 11.8537 17.9552 11.8537C17.7133 11.8537 17.493 11.7417 17.4388 11.4308H18.7208C18.7245 11.3841 18.7283 11.3369 18.7283 11.2865C18.7245 10.7482 18.3921 10.3799 17.9084 10.3799ZM22.4411 11.2865C22.4411 10.983 22.64 10.7338 22.9649 10.7338C23.2754 10.7338 23.485 10.9723 23.485 11.2865C23.485 11.6007 23.2754 11.8392 22.9649 11.8392C22.64 11.8392 22.4411 11.5899 22.4411 11.2865ZM23.8389 11.2865V10.4233H23.4635V10.6329C23.344 10.4774 23.1638 10.3799 22.9182 10.3799C22.4341 10.3799 22.0546 10.7594 22.0546 11.2865C22.0546 11.814 22.4341 12.1931 22.9182 12.1931C23.1638 12.1931 23.344 12.0955 23.4635 11.9401V12.1497H23.8389V11.2865ZM20.3211 11.2865C20.3211 11.8103 20.6858 12.1931 21.2422 12.1931C21.5023 12.1931 21.6755 12.1352 21.8632 11.9872L21.6829 11.6838C21.542 11.7851 21.394 11.8392 21.2311 11.8392C20.9313 11.8355 20.711 11.6189 20.711 11.2865C20.711 10.9541 20.9313 10.7375 21.2311 10.7338C21.394 10.7338 21.542 10.7879 21.6829 10.8892L21.8632 10.5858C21.6755 10.4378 21.5023 10.3799 21.2422 10.3799C20.6858 10.3799 20.3211 10.7627 20.3211 11.2865ZM25.161 10.3799C24.9444 10.3799 24.8034 10.4812 24.7058 10.6329V10.4233H24.3337V12.1497H24.7095V11.1819C24.7095 10.8962 24.8323 10.7375 25.0779 10.7375C25.154 10.7375 25.2333 10.7482 25.3127 10.7809L25.4285 10.427C25.3454 10.3943 25.2371 10.3799 25.161 10.3799ZM15.0981 10.5605C14.9174 10.4415 14.6685 10.3799 14.394 10.3799C13.9566 10.3799 13.6751 10.5895 13.6751 10.9326C13.6751 11.2141 13.8847 11.3878 14.2708 11.4419L14.4482 11.4672C14.654 11.4961 14.7512 11.5503 14.7512 11.6478C14.7512 11.7814 14.6139 11.8574 14.3576 11.8574C14.0976 11.8574 13.9099 11.7743 13.7834 11.6768L13.6065 11.969C13.8123 12.1208 14.0724 12.1931 14.3539 12.1931C14.8525 12.1931 15.1415 11.9583 15.1415 11.6296C15.1415 11.3262 14.9141 11.1674 14.5383 11.1133L14.3613 11.0876C14.1989 11.0661 14.0686 11.0339 14.0686 10.9181C14.0686 10.7916 14.1914 10.716 14.3973 10.716C14.6177 10.716 14.831 10.7991 14.9356 10.864L15.0981 10.5605ZM19.9416 10.3799C19.725 10.3799 19.584 10.4812 19.4869 10.6329V10.4233H19.1148V12.1497H19.4902V11.1819C19.4902 10.8962 19.613 10.7375 19.8585 10.7375C19.9346 10.7375 20.014 10.7482 20.0933 10.7809L20.2091 10.427C20.126 10.3943 20.0177 10.3799 19.9416 10.3799ZM16.7381 10.4233H16.1241V9.89949H15.7446V10.4233H15.3945V10.7664H15.7446V11.554C15.7446 11.9546 15.9001 12.1931 16.3441 12.1931C16.507 12.1931 16.6947 12.1427 16.8137 12.0596L16.7054 11.7379C16.5934 11.8029 16.4706 11.8355 16.373 11.8355C16.1853 11.8355 16.1241 11.7198 16.1241 11.5465V10.7664H16.7381V10.4233ZM11.1251 12.1497V11.0661C11.1251 10.6581 10.8651 10.3836 10.4459 10.3799C10.2255 10.3762 9.99816 10.4448 9.839 10.687C9.71994 10.4956 9.53224 10.3799 9.26849 10.3799C9.0841 10.3799 8.90385 10.434 8.76288 10.6362V10.4233H8.38708V12.1497H8.76619V11.1927C8.76619 10.8929 8.93238 10.7338 9.18911 10.7338C9.4384 10.7338 9.56449 10.8962 9.56449 11.1889V12.1497H9.94401V11.1927C9.94401 10.8929 10.1172 10.7338 10.3665 10.7338C10.6228 10.7338 10.7456 10.8962 10.7456 11.1889V12.1497H11.1251Z" fill="white"/>
</g>
<defs>
<clipPath id="clip0_31_5059">
<rect width="34.7354" height="22.2307" fill="white" transform="translate(0.492676 0.126221)"/>
</clipPath>
</defs>
</svg>
