<svg width="36" height="23" viewBox="0 0 36 23" fill="none" xmlns="http://www.w3.org/2000/svg">
<g clip-path="url(#clip0_31_5063)">
<rect x="0.665039" y="0.126221" width="34.7354" height="22.2307" rx="2.08412" fill="black"/>
<path fill-rule="evenodd" clip-rule="evenodd" d="M29.425 12.7583H29.9311V14.3679H29.9597L30.6177 13.5947L31.0845 13.5935L30.3626 14.4387L31.2322 15.4956H30.6493L29.9384 14.5118H29.9311V15.4956H29.425V12.7583V12.7583ZM5.36755 12.8807V14.3817C5.36755 14.893 5.51895 15.1725 5.94314 15.1725C6.34909 15.1725 6.51143 14.8337 6.51143 14.4113V12.8807H6.98973V14.5047C6.98973 15.165 6.55723 15.5392 5.92814 15.5392C5.20785 15.5392 4.83331 15.1912 4.83331 14.4786V12.8807H5.36755V12.8807ZM8.10767 13.8477C8.27892 13.6687 8.51726 13.5828 8.75642 13.5828C9.19986 13.5828 9.43455 13.8211 9.43455 14.2915V15.494H8.93132V14.3481C8.93132 14.0864 8.81397 13.9145 8.55192 13.9145C8.30547 13.9145 8.11192 14.0753 8.11192 14.3817V15.494H7.60808V13.6272H8.10767V13.8477ZM10.0268 15.494H10.5308V13.6272H10.0268V15.494ZM9.97731 13.0674C9.97731 12.9257 10.0983 12.7798 10.2696 12.7798C10.4439 12.7798 10.5796 12.9219 10.5796 13.0674C10.5796 13.2277 10.4629 13.3809 10.2769 13.3809C10.0985 13.3809 9.97731 13.2277 9.97731 13.0674ZM11.6459 15.494L10.8393 13.6193H11.3733C11.5367 14.0487 11.7061 14.4526 11.865 14.9715H11.8727C12.0439 14.4526 12.2051 14.0487 12.3792 13.6193H12.852L11.9979 15.494H11.6459ZM14.3518 14.3369C14.3714 14.0524 14.2689 13.8588 14.0194 13.8588C13.7302 13.8588 13.6005 14.0864 13.6059 14.3369H14.3518V14.3369ZM13.5976 14.6057C13.5863 14.9569 13.8364 15.2177 14.1509 15.2177C14.3378 15.2177 14.534 15.1543 14.6596 15.0682L14.8035 15.3298C14.5457 15.479 14.2762 15.5392 14.0603 15.5392C13.4878 15.5392 13.0597 15.1393 13.0597 14.5234C13.0597 13.9482 13.4837 13.5828 14.0261 13.5828C14.6175 13.5828 14.8641 14.0491 14.8268 14.6057H13.5976V14.6057ZM15.8161 13.9557H15.8232L15.9257 13.8102C15.982 13.7277 16.0959 13.5828 16.2514 13.5828C16.3651 13.5828 16.4869 13.6426 16.5931 13.7504L16.403 14.0939C16.3197 14.0524 16.2664 14.0305 16.1647 14.0305C15.9902 14.0305 15.8197 14.1687 15.8197 14.5716V15.494H15.314V13.6272H15.8161V13.9557V13.9557ZM17.9386 13.978C17.8251 13.8959 17.7076 13.8588 17.616 13.8588C17.5025 13.8588 17.3886 13.922 17.3886 14.0491C17.3886 14.1985 17.571 14.2846 17.783 14.437C18.0529 14.6359 18.1318 14.8298 18.1318 15.0007C18.1318 15.2629 17.8395 15.5392 17.4232 15.5392C17.1614 15.5392 16.9682 15.4492 16.7905 15.3262L16.9496 15.0682C17.0627 15.1583 17.2254 15.2473 17.3616 15.2473C17.5067 15.2473 17.635 15.1725 17.635 15.0159C17.635 14.8403 17.4376 14.7435 17.2562 14.6164C17.04 14.4711 16.8926 14.329 16.8926 14.098C16.8926 13.8025 17.18 13.5828 17.5513 13.5828C17.7607 13.5828 17.9648 13.6347 18.1022 13.7546L17.9386 13.978V13.978ZM19.3748 14.5009C19.1287 14.5793 19.0037 14.7173 19.0037 14.9299C19.0037 15.0945 19.1099 15.2066 19.2321 15.2066C19.4321 15.2066 19.694 14.9599 19.6565 14.4113L19.3748 14.5009V14.5009ZM19.5349 15.315C19.3981 15.4271 19.2238 15.5392 19.0499 15.5392C18.754 15.5392 18.5067 15.315 18.5067 14.9715C18.5067 14.6164 18.769 14.4188 19.209 14.2915L19.6565 14.1608C19.6301 13.9893 19.4741 13.8813 19.3119 13.8813C19.0951 13.8813 18.9433 13.9597 18.8107 14.0718L18.6472 13.8365C18.8829 13.6462 19.1135 13.5828 19.3748 13.5828C19.7244 13.5828 20.153 13.694 20.153 14.2771V15.0384C20.153 15.1879 20.1715 15.3638 20.2327 15.494H19.6982C19.6593 15.4303 19.6486 15.3225 19.6486 15.2216L19.5349 15.315V15.315ZM20.7179 15.494H21.2225V12.75H20.7179V15.494ZM25.688 14.5009C25.4411 14.5793 25.3161 14.7173 25.3161 14.9299C25.3161 15.0945 25.4216 15.2066 25.5437 15.2066C25.7437 15.2066 26.0057 14.9599 25.9689 14.4113L25.688 14.5009ZM25.846 15.315C25.7103 15.4271 25.5356 15.5392 25.3611 15.5392C25.0658 15.5392 24.8187 15.315 24.8187 14.9715C24.8187 14.6164 25.0806 14.4188 25.521 14.2915L25.9689 14.1608C25.9411 13.9893 25.7865 13.8813 25.6223 13.8813C25.4069 13.8813 25.2549 13.9597 25.1223 14.0718L24.9592 13.8365C25.1943 13.6462 25.4259 13.5828 25.688 13.5828C26.0359 13.5828 26.464 13.694 26.464 14.2771V15.0384C26.464 15.1879 26.4828 15.3638 26.5432 15.494H26.0096C25.9721 15.4303 25.9595 15.3225 25.9595 15.2216L25.846 15.315V15.315ZM27.5296 13.8477C27.7005 13.6687 27.9396 13.5828 28.1782 13.5828C28.6216 13.5828 28.8565 13.8211 28.8565 14.2915V15.494H28.3525V14.3481C28.3525 14.0864 28.2349 13.9145 27.9733 13.9145C27.7266 13.9145 27.5335 14.0753 27.5335 14.3817V15.494H27.0294V13.6272H27.5296V13.8477ZM23.0617 15.1796H23.3345C23.6304 15.1796 23.8548 15.0268 23.8548 14.736C23.8548 14.4295 23.6234 14.299 23.3315 14.299H23.0617V15.1796V15.1796ZM23.0617 13.978H23.2294C23.5368 13.978 23.7456 13.784 23.7456 13.5408C23.7456 13.3098 23.5702 13.2093 23.3392 13.2093H23.0615V13.978H23.0617ZM22.5277 15.5011V12.8878H23.4872C23.934 12.8878 24.2492 13.0893 24.2492 13.4439C24.2492 13.8619 23.9043 14.0341 23.7186 14.0824V14.0899C24.0486 14.1051 24.4158 14.3286 24.4158 14.7281C24.4158 15.1796 24.0325 15.5011 23.4079 15.5011H22.5277Z" fill="white"/>
<path fill-rule="evenodd" clip-rule="evenodd" d="M31.2322 11.397L31.2322 11.5996L4.83326 11.5996L4.83326 11.397L31.2322 11.397Z" fill="white"/>
<path fill-rule="evenodd" clip-rule="evenodd" d="M9.99482 10.188V8.49039C9.99482 8.00884 9.73703 7.78023 9.30412 7.78023C8.94418 7.78023 8.63287 7.99425 8.49668 8.20827C8.40912 7.94075 8.19024 7.78023 7.84489 7.78023C7.48494 7.78023 7.17364 8.00398 7.07636 8.14504V7.8386H6.45862V10.188H7.07636V8.60713C7.16878 8.4758 7.34875 8.32987 7.56277 8.32987C7.8157 8.32987 7.91299 8.48553 7.91299 8.70441V10.188H8.53559V8.60226C8.62315 8.4758 8.80312 8.32987 9.022 8.32987C9.27494 8.32987 9.37222 8.48553 9.37222 8.70441V10.188H9.99482ZM11.6924 10.2463C10.919 10.2463 10.452 9.68209 10.452 9.01085C10.452 8.34447 10.919 7.78023 11.6924 7.78023C12.4707 7.78023 12.9376 8.34447 12.9376 9.01085C12.9376 9.68209 12.4707 10.2463 11.6924 10.2463ZM11.6924 9.69669C12.0767 9.69669 12.2955 9.38052 12.2955 9.01085C12.2955 8.64604 12.0767 8.32987 11.6924 8.32987C11.3081 8.32987 11.0941 8.64604 11.0941 9.01085C11.0941 9.38052 11.3081 9.69669 11.6924 9.69669ZM15.5983 10.188V8.5293C15.5983 8.07208 15.3502 7.78023 14.8346 7.78023C14.4503 7.78023 14.1634 7.96507 14.0126 8.14504V7.8386H13.3948V10.188H14.0126V8.60713C14.1147 8.46607 14.3044 8.32987 14.5476 8.32987C14.8103 8.32987 14.9805 8.44175 14.9805 8.76764V10.188H15.5983V10.188ZM17.3007 10.2463C16.5273 10.2463 16.0604 9.68209 16.0604 9.01085C16.0604 8.34447 16.5273 7.78023 17.3007 7.78023C18.079 7.78023 18.5459 8.34447 18.5459 9.01085C18.5459 9.68209 18.079 10.2463 17.3007 10.2463ZM17.3007 9.69669C17.685 9.69669 17.9039 9.38052 17.9039 9.01085C17.9039 8.64604 17.685 8.32987 17.3007 8.32987C16.9164 8.32987 16.7024 8.64604 16.7024 9.01085C16.7024 9.38052 16.9164 9.69669 17.3007 9.69669ZM19.6209 9.43403C19.723 9.58481 19.9516 9.69669 20.1511 9.69669C20.511 9.69669 20.7494 9.4243 20.7494 9.01571C20.7494 8.60713 20.511 8.32987 20.1511 8.32987C19.9516 8.32987 19.723 8.44661 19.6209 8.60226V9.43403ZM19.6209 10.188H19.0031V6.9436H19.6209V8.14017C19.8057 7.90183 20.0684 7.78023 20.3456 7.78023C20.9439 7.78023 21.3866 8.24718 21.3866 9.01571C21.3866 9.79883 20.9391 10.2463 20.3456 10.2463C20.0635 10.2463 19.8057 10.1199 19.6209 9.88639V10.188ZM23.8818 10.188H23.2641V9.94476C23.1036 10.1345 22.8263 10.2463 22.5199 10.2463C22.1454 10.2463 21.7027 9.9934 21.7027 9.46807C21.7027 8.91843 22.1454 8.70927 22.5199 8.70927C22.8312 8.70927 23.1084 8.81142 23.2641 8.99626V8.68009C23.2641 8.44175 23.0598 8.2861 22.7485 8.2861C22.4956 8.2861 22.2621 8.37851 22.0627 8.56335L21.8292 8.1499C22.1162 7.89697 22.4858 7.78023 22.8555 7.78023C23.3906 7.78023 23.8818 7.99425 23.8818 8.67036V10.188ZM22.768 9.82802C22.9674 9.82802 23.162 9.75992 23.2641 9.62373V9.33188C23.162 9.19568 22.9674 9.12759 22.768 9.12759C22.5248 9.12759 22.3253 9.25405 22.3253 9.48267C22.3253 9.70155 22.5248 9.82802 22.768 9.82802V9.82802ZM26.6982 10.188V8.5293C26.6982 8.07208 26.4501 7.78023 25.9345 7.78023C25.5502 7.78023 25.2632 7.96507 25.1125 8.14504V7.8386H24.4947V10.188H25.1125V8.60713C25.2146 8.46607 25.4043 8.32987 25.6475 8.32987C25.9102 8.32987 26.0804 8.44175 26.0804 8.76764V10.188H26.6982ZM29.6069 10.188L28.6487 8.90384L29.5777 7.8386H28.8189L27.9288 8.88438V6.9436H27.311V10.188H27.9288V9.58481L28.2109 9.28324L28.8335 10.188H29.6069Z" fill="white"/>
</g>
<defs>
<clipPath id="clip0_31_5063">
<rect width="34.7354" height="22.2307" fill="white" transform="translate(0.665039 0.126221)"/>
</clipPath>
</defs>
</svg>
