<svg width="36" height="23" viewBox="0 0 36 23" fill="none" xmlns="http://www.w3.org/2000/svg">
<g clip-path="url(#clip0_31_5066)">
<rect x="0.544189" y="0.126221" width="34.7354" height="22.2307" rx="2.08412" fill="black"/>
<path d="M6.63622 11.4332C6.76267 11.4595 6.87622 11.4723 7.04293 11.4723C7.69582 11.4723 8.13573 11.0586 8.13573 10.5332C8.13573 10.0605 7.79596 9.88997 7.3564 9.88997C7.16267 9.88997 7.01609 9.90319 6.92285 9.92911L6.63622 11.4332ZM6.2696 9.3842C6.54298 9.31826 6.94969 9.27912 7.34951 9.27912C7.76964 9.27912 8.20955 9.36419 8.50271 9.59437C8.76266 9.79132 8.91595 10.0798 8.91595 10.4744C8.91595 10.9995 8.66253 11.4268 8.34253 11.6761C7.9828 11.9584 7.46907 12.0964 6.93591 12.0964C6.77574 12.0964 6.63622 12.0764 6.51614 12.0635L6.18943 13.7383H5.42987L6.2696 9.3842Z" fill="white"/>
<path d="M10.9752 11.0911C10.8954 11.0711 10.7956 11.0584 10.6555 11.0584C9.94226 11.0584 9.38226 11.8533 9.38226 12.5823C9.38226 12.9167 9.50889 13.1928 9.84902 13.1928C10.2153 13.1928 10.6555 12.7465 10.8088 11.9319L10.9752 11.0911ZM10.6621 13.738C10.6621 13.5472 10.6886 13.2914 10.7156 13.0217H10.7022C10.3823 13.6067 9.9488 13.8101 9.53555 13.8101C8.95577 13.8101 8.57538 13.3634 8.57538 12.7201C8.57538 11.6299 9.34871 10.4673 10.862 10.4673C11.2152 10.4673 11.5952 10.5329 11.8487 10.6117L11.5087 12.2799C11.4151 12.7526 11.3619 13.357 11.3754 13.738H10.6621Z" fill="white"/>
<path d="M16.2604 12.4706C16.2604 12.91 16.4937 13.2196 16.8937 13.2196C17.4736 13.2196 17.8604 12.4311 17.8604 11.7941C17.8604 11.4655 17.7068 11.0584 17.2405 11.0584C16.6205 11.0584 16.2604 11.8729 16.2604 12.4706ZM18.6602 11.7879C18.6602 12.8777 17.8934 13.8101 16.7872 13.8101C15.9669 13.8101 15.4608 13.2519 15.4608 12.4899C15.4608 11.4067 16.2272 10.4675 17.3338 10.4675C18.2069 10.4675 18.6602 11.0848 18.6602 11.7879" fill="white"/>
<path d="M18.8061 13.7383L19.2262 11.5315C19.306 11.1505 19.3527 10.8156 19.3928 10.54H20.0864L20.013 11.1113H20.026C20.3257 10.6842 20.7393 10.4676 21.1927 10.4676C21.6591 10.4676 22.0192 10.7437 22.0192 11.3478C22.0192 11.492 21.993 11.7152 21.9595 11.873L21.6056 13.7383H20.8257L21.172 11.9322C21.1927 11.814 21.2124 11.6761 21.2124 11.5511C21.2124 11.2818 21.1125 11.0913 20.8059 11.0913C20.4527 11.0913 19.9992 11.5115 19.8593 12.2606L19.5794 13.7383H18.8061Z" fill="white"/>
<path d="M24.0849 11.0387C23.598 11.0387 23.2784 11.4655 23.1851 11.8533C23.9848 11.8597 24.4985 11.7546 24.4985 11.3673C24.4985 11.1638 24.3318 11.0387 24.0849 11.0387ZM24.8249 13.554C24.5047 13.718 24.0718 13.8101 23.6782 13.8101C22.7791 13.8101 22.3456 13.2653 22.3456 12.4836C22.3456 11.5182 23.065 10.4675 24.185 10.4675C24.8249 10.4675 25.2316 10.8285 25.2316 11.3673C25.2316 12.188 24.3586 12.4506 23.1055 12.4245C23.0919 12.536 23.1186 12.7526 23.192 12.8775C23.3188 13.0945 23.5514 13.206 23.8585 13.206C24.2255 13.206 24.5183 13.114 24.7523 12.9958L24.8249 13.554Z" fill="white"/>
<path d="M27.1039 11.0387C26.6175 11.0387 26.2974 11.4655 26.2041 11.8533C27.0038 11.8597 27.5175 11.7546 27.5175 11.3673C27.5175 11.1638 27.3508 11.0387 27.1039 11.0387ZM27.8439 13.554C27.5242 13.718 27.0908 13.8101 26.6979 13.8101C25.7981 13.8101 25.3646 13.2653 25.3646 12.4836C25.3646 11.5182 26.084 10.4675 27.204 10.4675C27.8439 10.4675 28.2513 10.8285 28.2513 11.3673C28.2513 12.188 27.3776 12.4506 26.1245 12.4245C26.1107 12.536 26.1375 12.7526 26.211 12.8775C26.3378 13.0945 26.5709 13.206 26.8775 13.206C27.2445 13.206 27.5373 13.114 27.7713 12.9958L27.8439 13.554Z" fill="white"/>
<path d="M28.2972 13.7383L28.6771 11.7679C28.7636 11.3149 28.8103 10.8223 28.8431 10.54H29.5167C29.4967 10.7566 29.4769 10.9798 29.4434 11.21H29.4632C29.6841 10.7828 30.0366 10.4676 30.4768 10.4676C30.5372 10.4676 30.5969 10.4744 30.6504 10.4744L30.4968 11.223C30.4569 11.2162 30.4036 11.2162 30.35 11.2162C29.7964 11.2162 29.4434 11.7679 29.3171 12.4508L29.0702 13.7383H28.2972Z" fill="white"/>
<path d="M31.2403 10.8324H31.2971C31.3554 10.8324 31.3939 10.8004 31.3939 10.752C31.3939 10.6976 31.3535 10.6737 31.2952 10.6737C31.2683 10.6737 31.2493 10.6757 31.2403 10.6777V10.8324ZM31.1846 10.6395C31.2129 10.6344 31.2533 10.6308 31.2909 10.6308C31.3499 10.6308 31.3891 10.6426 31.4151 10.6656C31.4365 10.6842 31.4488 10.7132 31.4488 10.7466C31.4488 10.8016 31.4137 10.8389 31.3685 10.8536V10.8557C31.4013 10.8669 31.4206 10.8973 31.4315 10.9412C31.4453 10.9996 31.4555 11.0408 31.4645 11.0574H31.407C31.4001 11.0445 31.3904 11.0088 31.3794 10.9561C31.3663 10.8977 31.3425 10.8761 31.2924 10.874H31.2403V11.0574H31.1846V10.6395Z" fill="white"/>
<path d="M31.3123 10.4674C31.1003 10.4674 30.9282 10.637 30.9282 10.8458C30.9282 11.0546 31.1003 11.2244 31.3123 11.2244C31.5242 11.2244 31.6964 11.0546 31.6964 10.8458C31.6964 10.637 31.5242 10.4674 31.3123 10.4674ZM31.3123 10.5258C31.4913 10.5258 31.6367 10.6687 31.6367 10.8458C31.6367 11.0227 31.4913 11.1661 31.3123 11.1661C31.1327 11.1661 30.9871 11.0227 30.9871 10.8458C30.9871 10.6687 31.1327 10.5258 31.3123 10.5258" fill="white"/>
<path d="M12.113 7.46021C12.1453 8.18189 12.7782 10.9359 12.7782 10.9359C13.0108 11.4936 13.2111 10.9359 13.2111 10.9359C13.9768 8.67339 12.412 7.36226 12.412 7.36226C12.0125 7.13225 12.113 7.46021 12.113 7.46021ZM21.1989 7.06701C21.1989 7.06701 21.965 7.59157 21.1989 7.68987C21.1989 7.68987 18.3364 8.01765 16.2064 9.98556C16.2064 9.98556 13.0108 12.739 11.8129 15.7559C11.8129 15.7559 11.4135 15.7559 11.5471 15.1659C11.6801 14.5757 12.4785 11.9851 16.0395 8.80509C16.0395 8.80509 19.4687 5.72265 21.1989 7.06701" fill="#FF4600"/>
</g>
<defs>
<clipPath id="clip0_31_5066">
<rect width="34.7354" height="22.2307" fill="white" transform="translate(0.544189 0.126221)"/>
</clipPath>
</defs>
</svg>
