<svg width="36" height="23" viewBox="0 0 36 23" fill="none" xmlns="http://www.w3.org/2000/svg">
<g clip-path="url(#clip0_31_5060)">
<rect x="0.785767" y="0.126221" width="34.7354" height="22.2307" rx="2.08412" fill="#082069"/>
<path d="M11.1188 14.6458H9.67892C9.58038 14.6458 9.49659 14.7173 9.48122 14.8146L8.89885 18.5069C8.88727 18.5798 8.9437 18.6455 9.0176 18.6455H9.70503C9.80356 18.6455 9.88736 18.5739 9.90273 18.4764L10.0598 17.4805C10.075 17.383 10.159 17.3115 10.2573 17.3115H10.7131C11.6616 17.3115 12.209 16.8525 12.352 15.9429C12.4164 15.545 12.3547 15.2323 12.1684 15.0134C11.9638 14.7729 11.6008 14.6458 11.1188 14.6458ZM11.285 15.9943C11.2062 16.511 10.8114 16.511 10.4297 16.511H10.2124L10.3649 15.546C10.3739 15.4877 10.4245 15.4448 10.4834 15.4448H10.583C10.843 15.4448 11.0883 15.4448 11.2151 15.593C11.2906 15.6814 11.3138 15.8128 11.285 15.9943Z" fill="white"/>
<path d="M15.4231 15.9772H14.7335C14.6748 15.9772 14.6241 16.0202 14.615 16.0785L14.5845 16.2713L14.5363 16.2014C14.387 15.9848 14.0541 15.9124 13.7219 15.9124C12.9599 15.9124 12.3091 16.4895 12.1824 17.299C12.1165 17.7028 12.2102 18.089 12.4392 18.3583C12.6494 18.6059 12.95 18.709 13.3077 18.709C13.9217 18.709 14.2621 18.3142 14.2621 18.3142L14.2314 18.5058C14.2198 18.5791 14.2762 18.6448 14.3497 18.6448H14.9708C15.0696 18.6448 15.1529 18.5732 15.1685 18.4757L15.5412 16.1157C15.553 16.0431 15.4968 15.9772 15.4231 15.9772ZM14.4619 17.3192C14.3954 17.7131 14.0827 17.9776 13.684 17.9776C13.4837 17.9776 13.3237 17.9134 13.221 17.7917C13.1191 17.6708 13.0803 17.4988 13.1128 17.3072C13.1749 16.9167 13.4928 16.6436 13.8855 16.6436C14.0813 16.6436 14.2404 16.7086 14.3453 16.8314C14.4504 16.9554 14.492 17.1285 14.4619 17.3192Z" fill="white"/>
<path d="M19.0953 15.9771H18.4024C18.3363 15.9771 18.2742 16.0099 18.2367 16.0648L17.281 17.4726L16.876 16.1198C16.8505 16.0352 16.7724 15.9771 16.6839 15.9771H16.003C15.9203 15.9771 15.8628 16.0579 15.8891 16.1358L16.6524 18.3756L15.9348 19.3885C15.8784 19.4683 15.9352 19.578 16.0327 19.578H16.7248C16.7905 19.578 16.852 19.546 16.8892 19.4921L19.1939 16.1655C19.249 16.0859 19.1924 15.9771 19.0953 15.9771Z" fill="white"/>
<path d="M21.3893 14.6453H19.9492C19.8509 14.6453 19.7671 14.7168 19.7517 14.8141L19.1694 18.5064C19.1578 18.5793 19.2142 18.645 19.2877 18.645H20.0267C20.0953 18.645 20.1541 18.5949 20.1648 18.5267L20.3301 17.48C20.3453 17.3826 20.4293 17.311 20.5276 17.311H20.9832C21.9319 17.311 22.4791 16.852 22.6223 15.9424C22.6869 15.5445 22.6248 15.2318 22.4385 15.0129C22.2341 14.7724 21.8713 14.6453 21.3893 14.6453ZM21.5555 15.9938C21.4769 16.5105 21.0822 16.5105 20.7002 16.5105H20.4832L20.6358 15.5456C20.6449 15.4872 20.695 15.4443 20.7541 15.4443H20.8537C21.1135 15.4443 21.359 15.4443 21.4858 15.5925C21.5614 15.6809 21.5843 15.8123 21.5555 15.9938Z" fill="white"/>
<path d="M25.6933 15.9772H25.0042C24.945 15.9772 24.8947 16.0202 24.8859 16.0785L24.8553 16.2713L24.8069 16.2014C24.6576 15.9848 24.325 15.9124 23.9927 15.9124C23.2308 15.9124 22.5802 16.4895 22.4534 17.299C22.3877 17.7028 22.481 18.089 22.7101 18.3583C22.9206 18.6059 23.2209 18.709 23.5786 18.709C24.1925 18.709 24.533 18.3142 24.533 18.3142L24.5022 18.5058C24.4907 18.5791 24.5471 18.6448 24.621 18.6448H25.2419C25.3402 18.6448 25.424 18.5732 25.4394 18.4757L25.8123 16.1157C25.8236 16.0431 25.7672 15.9772 25.6933 15.9772ZM24.7322 17.3192C24.666 17.7131 24.353 17.9776 23.9542 17.9776C23.7544 17.9776 23.594 17.9134 23.4912 17.7917C23.3893 17.6708 23.351 17.4988 23.383 17.3072C23.4455 16.9167 23.763 16.6436 24.1557 16.6436C24.3515 16.6436 24.5107 16.7086 24.6155 16.8314C24.721 16.9554 24.7627 17.1285 24.7322 17.3192Z" fill="white"/>
<path d="M26.5062 14.7465L25.9152 18.5064C25.9036 18.5793 25.9601 18.645 26.0335 18.645H26.6277C26.7264 18.645 26.8102 18.5734 26.8254 18.4759L27.4082 14.7838C27.4198 14.7109 27.3633 14.645 27.2899 14.645H26.6245C26.5658 14.6452 26.5153 14.6882 26.5062 14.7465Z" fill="white"/>
<path opacity="0.68" d="M21.7076 5.28358C21.8218 4.55526 21.7068 4.05979 21.3129 3.61085C20.8792 3.11672 20.0958 2.90503 19.0934 2.90503H16.1837C15.9789 2.90503 15.8044 3.05407 15.7725 3.25651L14.5608 10.9395C14.537 11.0911 14.6542 11.2282 14.8075 11.2282H16.6038L16.4799 12.0144C16.459 12.147 16.5614 12.2669 16.6957 12.2669H18.2098C18.389 12.2669 18.5416 12.1365 18.5695 11.9594L18.5844 11.8824L18.8696 10.0737L18.888 9.97375C18.9159 9.79677 19.0685 9.66623 19.2477 9.66623H19.4741C20.941 9.66623 22.0895 9.07035 22.4251 7.34689C22.5654 6.62677 22.4928 6.02564 22.122 5.60303C22.0099 5.47544 21.8703 5.36979 21.7076 5.28358Z" fill="white"/>
<path opacity="0.7" d="M21.7076 5.28358C21.8218 4.55526 21.7068 4.05979 21.3129 3.61085C20.8792 3.11672 20.0958 2.90503 19.0934 2.90503H16.1837C15.9789 2.90503 15.8044 3.05407 15.7725 3.25651L14.5608 10.9395C14.537 11.0911 14.6542 11.2282 14.8075 11.2282H16.6038L17.055 8.36682L17.041 8.45655C17.073 8.2542 17.2459 8.10507 17.4508 8.10507H18.3046C19.9813 8.10507 21.2943 7.42384 21.6778 5.45379C21.6892 5.39563 21.6989 5.33908 21.7076 5.28358Z" fill="white"/>
<path d="M17.5398 5.29321C17.559 5.17154 17.6372 5.0718 17.7424 5.02145C17.7901 4.99857 17.8436 4.98579 17.8996 4.98579H20.1804C20.4507 4.98579 20.7026 5.00352 20.9329 5.04062C20.9987 5.0512 21.0628 5.06341 21.125 5.07723C21.1872 5.09106 21.2477 5.10641 21.3061 5.12358C21.3354 5.13206 21.3641 5.14112 21.3924 5.15047C21.5055 5.18804 21.6109 5.23228 21.7077 5.28368C21.822 4.55535 21.707 4.05988 21.3131 3.61095C20.8792 3.11672 20.0958 2.90503 19.0934 2.90503H16.1837C15.9789 2.90503 15.8044 3.05407 15.7725 3.25651L14.5608 10.9395C14.537 11.0911 14.6542 11.2282 14.8075 11.2282H16.6038L17.055 8.36682L17.5398 5.29321Z" fill="white"/>
</g>
<defs>
<clipPath id="clip0_31_5060">
<rect width="34.7354" height="22.2307" fill="white" transform="translate(0.785767 0.126221)"/>
</clipPath>
</defs>
</svg>
