<svg width="24" height="23" viewBox="0 0 24 23" fill="none" xmlns="http://www.w3.org/2000/svg">
<g clip-path="url(#clip0_31_5012)">
<path fill-rule="evenodd" clip-rule="evenodd" d="M11.928 0.825439C5.99147 0.825439 1.1687 5.64832 1.1687 11.5848C1.1687 17.5214 5.99148 22.344 11.928 22.344C17.8645 22.344 22.6873 17.5214 22.6873 11.5848C22.6873 5.64831 17.8645 0.825439 11.928 0.825439ZM18.3689 15.0626C18.2953 15.2413 17.9486 15.4933 16.7298 15.6826C16.6247 15.7034 16.5932 15.8295 16.5301 16.1029C16.5105 16.2021 16.486 16.3003 16.4566 16.3971C16.425 16.4914 16.3725 16.5336 16.278 16.5336H16.2674C16.1749 16.5314 16.0831 16.5173 15.9943 16.4914C15.7515 16.4472 15.5055 16.4227 15.2588 16.4181C15.0827 16.4168 14.907 16.4308 14.7334 16.46C14.3656 16.5232 14.0609 16.7437 13.7247 16.9749C13.2519 17.3112 12.7581 17.6579 11.991 17.6579H11.8229C11.0559 17.6579 10.5621 17.3112 10.0892 16.9749C9.76354 16.7437 9.44832 16.5232 9.08057 16.46C8.90699 16.4308 8.7312 16.4168 8.5552 16.4181C8.3079 16.4224 8.06159 16.4505 7.8197 16.5021C7.73003 16.5241 7.6386 16.5381 7.54648 16.544C7.50365 16.5487 7.46059 16.5373 7.42566 16.5121C7.39072 16.4869 7.36639 16.4496 7.35738 16.4074C7.32584 16.3024 7.30484 16.1973 7.2838 16.1029C7.23127 15.8506 7.18927 15.7034 7.0842 15.6826C5.86534 15.4932 5.51863 15.2413 5.44506 15.0626C5.43317 15.036 5.42606 15.0076 5.42406 14.9786C5.42335 14.9456 5.4347 14.9136 5.45599 14.8884C5.47728 14.8633 5.50702 14.8468 5.53963 14.8421C7.40991 14.5268 8.25048 12.6145 8.28199 12.5305H8.29253C8.4081 12.2993 8.4291 12.0891 8.35556 11.9315C8.22945 11.6267 7.80917 11.4902 7.53599 11.4062C7.47194 11.3883 7.40882 11.3672 7.34689 11.3429C6.78999 11.1224 6.74796 10.9019 6.76898 10.7861C6.81098 10.5867 7.06316 10.4498 7.2838 10.4498C7.33461 10.4491 7.38491 10.46 7.4309 10.4816C7.68308 10.597 7.90374 10.66 8.09287 10.66C8.36605 10.66 8.48162 10.5445 8.49212 10.5341C8.49212 10.408 8.48162 10.2714 8.47112 10.1346C8.41858 9.25219 8.34504 8.14894 8.62873 7.51851C9.4693 5.63762 11.245 5.4907 11.7704 5.4907H12.0331C12.5584 5.4907 14.3446 5.63762 15.1852 7.51851C15.4689 8.14896 15.3953 9.25219 15.3428 10.1346V10.1768C15.3323 10.2922 15.3218 10.4184 15.3218 10.5341C15.3323 10.5445 15.4374 10.6496 15.679 10.66C15.8682 10.6496 16.0783 10.5867 16.3094 10.4816C16.3726 10.4545 16.4404 10.4401 16.5091 10.4394C16.5856 10.4407 16.6609 10.4586 16.7297 10.492H16.7402C16.9189 10.5549 17.0449 10.6917 17.0449 10.8283C17.0554 10.9544 16.9504 11.1539 16.467 11.3429C16.4145 11.364 16.3515 11.3851 16.2884 11.4062C16.0047 11.4901 15.5844 11.6267 15.4584 11.9315C15.3848 12.0891 15.4058 12.2993 15.5214 12.5305H15.5319C15.5634 12.6145 16.404 14.5268 18.2743 14.8421C18.3069 14.8468 18.3366 14.8633 18.3579 14.8884C18.3792 14.9136 18.3906 14.9456 18.3899 14.9786C18.3879 15.0076 18.3807 15.036 18.3688 15.0626H18.3689Z" fill="#1F2937"/>
</g>
<defs>
<clipPath id="clip0_31_5012">
<rect width="22.2307" height="22.2307" fill="white" transform="translate(0.876709 0.475098)"/>
</clipPath>
</defs>
</svg>
