<svg width="23" height="23" viewBox="0 0 23 23" fill="none" xmlns="http://www.w3.org/2000/svg">
<g clip-path="url(#clip0_31_5008)">
<path d="M11.6467 0.476074C9.44831 0.476074 7.29928 1.12798 5.47137 2.34935C3.64346 3.57071 2.21878 5.30669 1.37748 7.33775C0.536188 9.36881 0.316067 11.6037 0.744955 13.7599C1.17384 15.9161 2.23248 17.8966 3.78699 19.4511C5.3415 21.0056 7.32206 22.0643 9.47823 22.4932C11.6344 22.9221 13.8693 22.7019 15.9004 21.8606C17.9314 21.0193 19.6674 19.5947 20.8888 17.7668C22.1102 15.9388 22.7621 13.7898 22.7621 11.5914C22.7621 8.64344 21.591 5.81621 19.5065 3.73168C17.4219 1.64715 14.5947 0.476074 11.6467 0.476074V0.476074ZM16.6574 10.3526C15.6658 10.4623 14.8161 10.0704 13.9663 9.57017C13.9663 9.65207 13.9912 12.191 13.9488 13.402C13.9064 14.6467 13.4617 15.7421 12.4862 16.5597C10.4182 18.2957 7.48286 17.3582 6.7823 14.7037C6.40203 13.2572 6.73257 11.9541 7.8675 10.923C8.50664 10.338 9.29495 10.0777 10.1403 9.96945C10.3217 9.94605 10.5045 9.93581 10.7005 9.91826V11.8839C10.4518 11.9453 10.2003 11.9995 9.95309 12.0726C9.78162 12.1221 9.61436 12.1852 9.4529 12.2613C9.22765 12.3626 9.02875 12.5144 8.8716 12.7049C8.71446 12.8954 8.6033 13.1196 8.54673 13.36C8.49016 13.6004 8.48971 13.8507 8.5454 14.0913C8.60109 14.3319 8.71144 14.5565 8.86789 14.7476C9.05602 15.0077 9.3119 15.2113 9.60768 15.3361C9.90346 15.4609 10.2278 15.5022 10.5454 15.4554C11.1846 15.3779 11.5853 14.9757 11.8222 14.398C11.9861 13.9408 12.0571 13.4556 12.0314 12.9706C12.0226 10.5837 12.0226 8.19831 12.0182 5.81143C12.0202 5.78689 12.0237 5.76247 12.0284 5.73831H13.9371C14.1506 7.3354 14.9608 8.34748 16.6574 8.49081V10.3526Z" fill="#1F2937"/>
</g>
<defs>
<clipPath id="clip0_31_5008">
<rect width="22.2307" height="22.2307" fill="white" transform="translate(0.53064 0.475098)"/>
</clipPath>
</defs>
</svg>
