<svg width="24" height="23" viewBox="0 0 24 23" fill="none" xmlns="http://www.w3.org/2000/svg">
<g clip-path="url(#clip0_31_5004)">
<path d="M11.9536 0.475342C5.8157 0.475342 0.838257 5.45278 0.838257 11.5907C0.838257 17.7286 5.8157 22.706 11.9536 22.706C18.0915 22.706 23.0689 17.7286 23.0689 11.5907C23.0689 5.45278 18.0915 0.475342 11.9536 0.475342ZM17.0287 9.1419C17.0336 9.25129 17.036 9.3612 17.036 9.47161C17.036 12.8429 14.4699 16.7304 9.77703 16.7306H9.7772H9.77703C8.33622 16.7306 6.99548 16.3083 5.86641 15.5846C6.06604 15.6081 6.26923 15.6198 6.47496 15.6198C7.67035 15.6198 8.77041 15.2121 9.64372 14.5278C8.52686 14.5071 7.5852 13.7694 7.26024 12.7557C7.41577 12.7856 7.57571 12.8018 7.73972 12.8018C7.97259 12.8018 8.19816 12.7705 8.41254 12.7119C7.24514 12.4782 6.36573 11.4465 6.36573 10.2111C6.36573 10.1996 6.36573 10.1892 6.36607 10.1785C6.70986 10.3697 7.10301 10.4847 7.5216 10.4976C6.83656 10.0405 6.38626 9.25909 6.38626 8.37392C6.38626 7.90648 6.51261 7.46856 6.73174 7.09152C7.98989 8.63528 9.87014 9.65055 11.9906 9.75723C11.9468 9.57032 11.9242 9.37561 11.9242 9.17548C11.9242 7.76707 13.0669 6.62443 14.4758 6.62443C15.2097 6.62443 15.8725 6.93464 16.3381 7.43057C16.9193 7.31591 17.4651 7.10356 17.9582 6.81133C17.7674 7.40682 17.363 7.90648 16.8362 8.22246C17.3523 8.16072 17.8442 8.02385 18.3013 7.82066C17.9599 8.33236 17.5269 8.78182 17.0287 9.1419Z" fill="#1F2937"/>
</g>
<defs>
<clipPath id="clip0_31_5004">
<rect width="22.2307" height="22.2307" fill="white" transform="translate(0.838623 0.475098)"/>
</clipPath>
</defs>
</svg>
