<svg width="35" height="23" viewBox="0 0 35 23" fill="none" xmlns="http://www.w3.org/2000/svg">
<g clip-path="url(#clip0_31_5065)">
<rect x="0.25116" y="0.126221" width="34.7354" height="22.2307" rx="2.08412" fill="#0D0D0D"/>
<path d="M3.42078 9.78441H4.12588L4.2941 11.0362H4.29945L4.48464 9.78441H5.29989L5.48442 11.0362H5.48977L5.65838 9.78441H6.36349L5.93413 11.7739H5.07947L4.8952 10.4851H4.88985L4.70519 11.7739H3.85078L3.42078 9.78441Z" fill="#FDDF12"/>
<path d="M6.82361 9.78441H8.33692V10.3032H7.57883V10.5147H8.27898V11.0331H7.57883V11.2562H8.36159V11.7739H6.82361V9.78441Z" fill="#FDDF12"/>
<path d="M9.95173 10.3495C9.94872 10.2255 9.87995 10.184 9.7779 10.184C9.65144 10.184 9.59584 10.2391 9.59584 10.3002C9.59584 10.3712 9.64269 10.4017 9.7253 10.4266C9.87695 10.4711 10.1552 10.5257 10.3562 10.6114C10.6075 10.7158 10.7174 10.8954 10.7174 11.1347C10.7174 11.6226 10.3208 11.8267 9.75806 11.8267C9.27872 11.8267 8.83801 11.6779 8.83801 11.1597H9.59323C9.59323 11.2153 9.60446 11.2701 9.6346 11.3117C9.66475 11.3497 9.71447 11.3745 9.78873 11.3745C9.90435 11.3745 9.97926 11.3001 9.97926 11.2121C9.97926 11.138 9.92132 11.0995 9.84654 11.0772L9.28707 10.9121C8.98157 10.821 8.87429 10.636 8.87429 10.38C8.87429 9.96647 9.20773 9.73222 9.78873 9.73222C10.2846 9.73222 10.6572 9.88699 10.6572 10.3495H9.95173Z" fill="#FDDF12"/>
<path d="M11.6348 10.3196H11.1447V9.78429H12.9135V10.3196H12.4229V11.7737H11.6348V10.3196Z" fill="#FDDF12"/>
<path d="M13.4257 9.78441H14.9388V10.3032H14.1813V10.5147H14.8811V11.0331H14.1813V11.2562H14.964V11.7739H13.4257V9.78441Z" fill="#FDDF12"/>
<path d="M15.5259 9.78441H16.7027C17.1298 9.78441 17.3806 9.91439 17.3806 10.2895C17.3806 10.5181 17.2839 10.691 16.9859 10.7632V10.7685C17.1792 10.7852 17.2839 10.8702 17.3223 11.0224C17.3663 11.1929 17.3613 11.4739 17.4519 11.7739H16.6806C16.634 11.6253 16.6091 11.3746 16.5812 11.2041C16.5653 11.1044 16.5153 11.0666 16.3886 11.0666H16.2973V11.7739H15.5259V9.78441ZM16.3635 10.614C16.5153 10.614 16.6254 10.5617 16.6254 10.4133C16.6254 10.2673 16.5232 10.2367 16.3686 10.2367H16.2973V10.614H16.3635Z" fill="#FDDF12"/>
<path d="M17.979 9.78441H18.9237L19.3447 10.9891H19.3507V9.78441H19.9902V11.7739H19.0455L18.6234 10.5617H18.6178V11.7739H17.979V9.78441Z" fill="#FDDF12"/>
<path d="M10.7007 13.4896C10.7007 13.9695 10.3561 14.2095 9.7557 14.2095C9.15487 14.2095 8.81073 13.9695 8.81073 13.4896V12.1675H9.59858V13.4567C9.59858 13.6137 9.67309 13.6752 9.7557 13.6752C9.83831 13.6752 9.91283 13.6137 9.91283 13.4567V12.1675H10.7007V13.4896Z" fill="#FDDF12"/>
<path d="M11.3322 12.1676H12.2773L12.6986 13.372H12.7042V12.1676H13.3433V14.1575H12.3983L11.9772 12.9444H11.9709V14.1575H11.3322V12.1676Z" fill="#FDDF12"/>
<path d="M13.9889 12.1676H14.7761V14.1575H13.9889V12.1676Z" fill="#FDDF12"/>
<path d="M16.3771 12.1152C17.0634 12.1152 17.4052 12.542 17.4052 13.1622C17.4052 13.7821 17.0634 14.2095 16.3771 14.2095C15.6911 14.2095 15.3497 13.7821 15.3497 13.1622C15.3497 12.542 15.6911 12.1152 16.3771 12.1152ZM16.3771 13.6914C16.4991 13.6914 16.5891 13.6222 16.5891 13.1622C16.5891 12.7129 16.5043 12.633 16.3771 12.633C16.2507 12.633 16.1651 12.7129 16.1651 13.1622C16.1651 13.6222 16.2567 13.6914 16.3771 13.6914Z" fill="#FDDF12"/>
<path d="M17.979 12.1676H18.9237L19.3447 13.372H19.3507V12.1676H19.9902V14.1575H19.0455L18.6234 12.9444H18.6178V14.1575H17.979V12.1676Z" fill="#FDDF12"/>
<path d="M27.4084 9.75621H27.0726L26.6966 12.5488H26.6845L26.2728 9.75621H24.4535L24.0408 12.5488H24.0289L23.654 9.75621H22.0809L23.0398 14.1941H24.9461L25.3574 11.3191H25.3699L25.7812 14.1941H27.6874L27.7829 13.7503C27.5392 13.4913 27.4084 13.1443 27.4084 12.7062V9.75621Z" fill="#FDDF12"/>
<path d="M27.4084 9.7562V12.7062C27.4084 13.1443 27.5392 13.4913 27.783 13.7502L28.6454 9.7562H27.4084Z" fill="white"/>
<path d="M29.8668 9.75628V12.633C29.8668 12.9831 29.7007 13.1195 29.5164 13.1195C29.3321 13.1195 29.166 12.9831 29.166 12.633V9.75628H28.7909L27.9051 13.8607C28.2645 14.1597 28.8087 14.312 29.5164 14.312C30.8562 14.312 31.6247 13.7764 31.6247 12.7063V9.75628H29.8668Z" fill="#FDDF12"/>
<path d="M20.9276 9.75621H20.6658L21.6079 14.1941H21.87L20.9276 9.75621Z" fill="#FDDF12"/>
<path d="M22.3239 14.1941H22.5858L21.6436 9.75621H21.3819L22.3239 14.1941Z" fill="#FDDF12"/>
<path d="M32.1553 9.96846C32.153 9.9387 32.1369 9.92396 32.1065 9.92396C32.0831 9.92396 32.0595 9.93622 32.0595 9.96193C32.0595 9.99364 32.0881 9.99743 32.1133 10.0034C32.1582 10.0149 32.2241 10.0276 32.2241 10.0864C32.2241 10.1594 32.1605 10.1846 32.0974 10.1846C32.0303 10.1846 31.9827 10.1586 31.9846 10.0845H32.049C32.0466 10.117 32.0654 10.139 32.0983 10.139C32.1235 10.139 32.157 10.1313 32.157 10.1C32.157 10.0653 32.115 10.0628 32.0897 10.0564C32.0487 10.0462 31.9923 10.0276 31.9923 9.97537C31.9923 9.9083 32.0543 9.87841 32.1146 9.87841C32.1716 9.87841 32.216 9.90934 32.216 9.96846H32.1553Z" fill="#FDDF12"/>
<path d="M32.4565 10.1782H32.4039L32.3263 9.92596L32.3254 9.92674V10.1782H32.2662V9.88433H32.3697L32.4312 10.0981H32.432L32.4988 9.88433H32.5985V10.1782H32.5395V9.92674L32.5389 9.92596L32.4565 10.1782Z" fill="#FDDF12"/>
</g>
<defs>
<clipPath id="clip0_31_5065">
<rect width="34.7354" height="22.2307" fill="white" transform="translate(0.25116 0.126221)"/>
</clipPath>
</defs>
</svg>
